# This file uses centimeters as units for non-parametric coordinates.

mtllib grass!.mtl
g default
v -1.086226 2.836943 -0.440815
v -0.887319 2.559438 -0.424339
v -0.677701 2.115219 -0.399235
v -0.525199 1.599010 -0.371012
v -0.443372 1.076535 -0.346546
v -0.416288 0.548922 -0.327756
v -0.406221 0.021147 -0.296685
v -1.087887 2.838664 -0.439591
v -0.897371 2.562706 -0.384115
v -0.659398 2.124511 -0.323114
v -0.517877 1.608504 -0.283958
v -0.434378 1.086028 -0.260856
v -0.438791 0.553752 -0.262077
v -0.446153 0.021147 -0.264114
v -1.089309 2.836943 -0.438301
v -0.966061 2.559438 -0.360114
v -0.807804 2.115219 -0.293117
v -0.680880 1.599010 -0.244030
v -0.595710 1.076535 -0.222291
v -0.547942 0.548922 -0.220372
v -0.486085 0.021147 -0.231543
v 0.963369 2.395429 -0.399508
v 0.773692 2.168164 -0.340795
v 0.548980 1.797435 -0.281685
v 0.353743 1.360825 -0.242281
v 0.213999 0.914190 -0.223261
v 0.094166 0.459459 -0.217998
v -0.003524 0.003894 -0.227345
v 0.962709 2.396853 -0.400986
v 0.716179 2.171618 -0.373689
v 0.414020 1.809028 -0.331707
v 0.208926 1.372238 -0.303944
v 0.070200 0.925666 -0.283374
v 0.004521 0.464274 -0.273701
v -0.027844 0.002383 -0.264394
v 0.961492 2.395312 -0.402368
v 0.725737 2.165186 -0.413851
v 0.469745 1.792514 -0.402393
v 0.258930 1.354936 -0.386721
v 0.121222 0.908428 -0.364600
v 0.013987 0.454479 -0.340145
v -0.052163 0.000872 -0.301443
v 0.110950 2.746511 0.279588
v 0.002682 2.485035 0.201900
v -0.106319 2.058497 0.109863
v -0.178981 1.556162 0.029899
v -0.214054 1.042293 -0.027337
v -0.223759 0.519110 -0.065152
v -0.206522 -0.005034 -0.106160
v 0.113676 2.748149 0.279317
v 0.063339 2.489008 0.178344
v -0.014077 2.071835 0.054587
v -0.065271 1.569294 -0.029415
v -0.103203 1.055497 -0.086234
v -0.121040 0.524649 -0.101869
v -0.138203 -0.006773 -0.116121
v 0.116225 2.746376 0.278819
v 0.137399 2.481608 0.182259
v 0.116270 2.052835 0.077411
v 0.087371 1.549387 -0.008934
v 0.046579 1.035663 -0.065337
v 0.001484 0.513380 -0.097992
v -0.069884 -0.008510 -0.126082
v 0.452442 1.968532 0.327031
v 0.407018 1.673622 0.338553
v 0.383006 1.337637 0.329343
v 0.351371 1.006947 0.310307
v 0.318734 0.682306 0.277667
v 0.285691 0.361267 0.236866
v 0.253459 0.046490 0.181412
v 0.452442 1.969048 0.325844
v 0.390758 1.692800 0.299464
v 0.336776 1.370227 0.268660
v 0.304139 1.044902 0.237593
v 0.271501 0.719577 0.206527
v 0.261662 0.391312 0.175179
v 0.252083 0.048285 0.144413
v 0.452442 1.969564 0.324657
v 0.407018 1.707784 0.259974
v 0.383006 1.390894 0.206838
v 0.351371 1.070676 0.163716
v 0.318734 0.744667 0.134223
v 0.285691 0.415160 0.112900
v 0.250512 0.048545 0.106311
v 0.012798 1.418892 -0.712771
v 0.063192 1.256011 -0.655301
v 0.071584 1.022530 -0.602732
v 0.054046 0.782218 -0.564677
v 0.005398 0.540838 -0.537020
v -0.058041 0.302951 -0.507769
v -0.153256 0.066488 -0.486215
v 0.010643 1.419243 -0.712547
v -0.001969 1.274322 -0.636147
v -0.022714 1.058903 -0.559116
v -0.060704 0.818594 -0.515969
v -0.105806 0.572819 -0.487217
v -0.159959 0.326316 -0.475697
v -0.218687 0.067810 -0.475682
v 0.008487 1.419597 -0.712325
v -0.078480 1.280440 -0.638417
v -0.149283 1.060616 -0.576411
v -0.209156 0.828551 -0.530975
v -0.251187 0.586579 -0.502087
v -0.279354 0.342577 -0.476706
v -0.286014 0.068001 -0.464730
v -0.608358 2.298546 0.349300
v -0.558018 2.088592 0.256010
v -0.485972 1.743069 0.153941
v -0.409195 1.333657 0.074926
v -0.342996 0.912777 0.025859
v -0.284313 0.473454 -0.017609
v -0.210259 0.042465 -0.034294
v -0.606324 2.299896 0.350313
v -0.486799 2.092972 0.268001
v -0.349152 1.757123 0.160439
v -0.253471 1.347628 0.088262
v -0.189612 0.926804 0.038211
v -0.168360 0.479666 0.004610
v -0.154333 0.041103 -0.010793
v -0.604041 2.298441 0.351115
v -0.447738 2.085904 0.302352
v -0.303761 1.738629 0.230509
v -0.191160 1.328344 0.166548
v -0.129642 0.907577 0.115513
v -0.099929 0.468960 0.059872
v -0.098407 0.039740 0.012708
v 0.513859 3.314379 -0.166384
v 0.316973 2.988497 -0.145472
v 0.104685 2.466840 -0.128558
v -0.055935 1.860643 -0.122845
v -0.147896 1.247087 -0.125949
v -0.184962 0.627498 -0.134054
v -0.213672 0.007719 -0.153009
v 0.514659 3.316400 -0.167460
v 0.301470 2.992336 -0.173704
v 0.040317 2.477753 -0.176013
v -0.116774 1.871792 -0.179292
v -0.209459 1.258236 -0.181227
v -0.204561 0.633170 -0.181125
v -0.196389 0.007719 -0.180954
v 0.515194 3.314379 -0.168541
v 0.351055 2.988497 -0.200577
v 0.160998 2.466840 -0.219606
v 0.011449 1.860643 -0.231793
v -0.081959 1.247087 -0.232558
v -0.127978 0.627498 -0.226188
v -0.179105 0.007719 -0.208900
vt 0.265520 0.860212
vt 0.247496 0.763480
vt 0.230570 0.625352
vt 0.231611 0.474023
vt 0.241775 0.327472
vt 0.264540 0.184253
vt 0.292540 0.042926
vt 0.266401 0.860679
vt 0.270706 0.760140
vt 0.273995 0.618114
vt 0.282138 0.472683
vt 0.291345 0.331112
vt 0.302994 0.188695
vt 0.315062 0.044773
vt 0.267349 0.860401
vt 0.294947 0.768350
vt 0.320722 0.633519
vt 0.337390 0.483188
vt 0.346483 0.336108
vt 0.344894 0.190804
vt 0.337584 0.046613
vt 0.479381 0.788486
vt 0.462742 0.697753
vt 0.487619 0.689600
vt 0.480302 0.788765
vt 0.443988 0.570481
vt 0.491895 0.553695
vt 0.438297 0.432159
vt 0.495116 0.420988
vt 0.439989 0.300333
vt 0.496657 0.294383
vt 0.454365 0.170322
vt 0.497344 0.168946
vt 0.472299 0.043955
vt 0.495079 0.043434
vt 0.510255 0.695722
vt 0.481215 0.788407
vt 0.533792 0.567621
vt 0.545090 0.429307
vt 0.546302 0.298040
vt 0.536164 0.168535
vt 0.517858 0.042927
vt 0.210553 0.839592
vt 0.180330 0.754051
vt 0.202863 0.747846
vt 0.211484 0.839889
vt 0.144677 0.626035
vt 0.186089 0.614665
vt 0.121448 0.480404
vt 0.170402 0.472088
vt 0.106344 0.335992
vt 0.154916 0.331236
vt 0.100741 0.191731
vt 0.139260 0.188827
vt 0.101454 0.047772
vt 0.123487 0.045352
vt 0.226206 0.749088
vt 0.212329 0.839399
vt 0.228964 0.616758
vt 0.219993 0.469566
vt 0.203361 0.325325
vt 0.177490 0.183293
vt 0.145518 0.042927
vt 0.732709 0.581264
vt 0.701534 0.505927
vt 0.725097 0.502910
vt 0.733405 0.581190
vt 0.676915 0.417526
vt 0.715552 0.412981
vt 0.660577 0.328059
vt 0.706029 0.323258
vt 0.651945 0.237790
vt 0.696505 0.233514
vt 0.649734 0.146929
vt 0.686949 0.143476
vt 0.655295 0.055521
vt 0.675812 0.049514
vt 0.748768 0.500914
vt 0.734101 0.581116
vt 0.754282 0.409315
vt 0.751477 0.318411
vt 0.740969 0.228342
vt 0.724059 0.139042
vt 0.696810 0.042914
vt 0.834915 0.455517
vt 0.804175 0.406415
vt 0.825934 0.397060
vt 0.835586 0.455327
vt 0.775622 0.340789
vt 0.812406 0.326173
vt 0.755092 0.273056
vt 0.799647 0.258490
vt 0.742775 0.203812
vt 0.786973 0.190898
vt 0.738759 0.133328
vt 0.775121 0.123526
vt 0.741972 0.061287
vt 0.761593 0.052572
vt 0.849890 0.392888
vt 0.836258 0.455137
vt 0.852335 0.318256
vt 0.845456 0.246347
vt 0.831364 0.177694
vt 0.810914 0.111827
vt 0.781405 0.042920
vt 0.587579 0.720621
vt 0.569800 0.642421
vt 0.592877 0.638773
vt 0.588455 0.720964
vt 0.552661 0.529569
vt 0.594873 0.522300
vt 0.549580 0.405062
vt 0.599146 0.402311
vt 0.554529 0.284203
vt 0.603415 0.284746
vt 0.564739 0.160710
vt 0.603255 0.162771
vt 0.585579 0.042927
vt 0.607769 0.043757
vt 0.615621 0.644139
vt 0.589355 0.720687
vt 0.636442 0.532545
vt 0.648391 0.408594
vt 0.652096 0.287753
vt 0.641963 0.163596
vt 0.629959 0.044599
vt 0.372830 0.984929
vt 0.355563 0.877772
vt 0.372446 0.875477
vt 0.373492 0.985489
vt 0.338143 0.721491
vt 0.371657 0.716409
vt 0.339639 0.547746
vt 0.377622 0.547521
vt 0.348446 0.377670
vt 0.385724 0.381237
vt 0.370741 0.209836
vt 0.398444 0.213623
vt 0.393906 0.042925
vt 0.410876 0.044514
vt 0.393136 0.882882
vt 0.374260 0.985129
vt 0.414908 0.729363
vt 0.427488 0.555768
vt 0.435520 0.384541
vt 0.433916 0.214559
vt 0.427873 0.045692
vn -0.798261 -0.581886 -0.155525
vn -0.879244 -0.472807 0.058169
vn -0.563103 -0.404908 -0.720392
vn -0.529316 -0.502475 -0.683626
vn -0.928922 -0.338298 0.150528
vn -0.607101 -0.287716 -0.740708
vn -0.967610 -0.206439 0.145308
vn -0.623392 -0.179718 -0.760976
vn -0.995431 -0.093231 0.020630
vn -0.632894 -0.077945 -0.770305
vn -0.959463 -0.020858 -0.281061
vn -0.632046 -0.016992 -0.774745
vn -0.844259 -0.016821 -0.535672
vn -0.631725 -0.014341 -0.775060
vn -0.235819 -0.265226 -0.934903
vn -0.290420 -0.377038 -0.879487
vn -0.214795 -0.180403 -0.959853
vn -0.219280 -0.109297 -0.969521
vn -0.253935 -0.049646 -0.965946
vn -0.341361 -0.012114 -0.939854
vn -0.445600 -0.011750 -0.895155
vn 0.399038 -0.527257 -0.750179
vn 0.356793 -0.401744 -0.843386
vn 0.668400 -0.603990 -0.434093
vn 0.587049 -0.692788 -0.418829
vn 0.345249 -0.292028 -0.891921
vn 0.746046 -0.464644 -0.476991
vn 0.357900 -0.196120 -0.912932
vn 0.796577 -0.332777 -0.504703
vn 0.399173 -0.135186 -0.906855
vn 0.821359 -0.219311 -0.526566
vn 0.499141 -0.099048 -0.860842
vn 0.834657 -0.140899 -0.532443
vn 0.627184 -0.088873 -0.773784
vn 0.833863 -0.106135 -0.541671
vn 0.699370 -0.539261 0.469126
vn 0.666148 -0.696244 0.267379
vn 0.727478 -0.403030 0.555286
vn 0.775053 -0.278769 0.567081
vn 0.851704 -0.196366 0.485841
vn 0.965885 -0.145130 0.214486
vn 0.985199 -0.112785 -0.129082
vn 0.353457 -0.398167 0.846482
vn 0.442445 -0.330963 0.833490
vn 0.126739 -0.304186 0.944144
vn 0.126735 -0.381164 0.915780
vn 0.483472 -0.245817 0.840136
vn 0.136546 -0.219652 0.965975
vn 0.484962 -0.164130 0.858996
vn 0.138981 -0.148288 0.979130
vn 0.445005 -0.095490 0.890422
vn 0.141625 -0.085170 0.986250
vn 0.351866 -0.054366 0.934470
vn 0.142901 -0.048251 0.988560
vn 0.263987 -0.050407 0.963208
vn 0.142952 -0.046673 0.988629
vn -0.143056 -0.260741 0.954751
vn -0.083254 -0.347508 0.933974
vn -0.164574 -0.187545 0.968371
vn -0.158542 -0.123936 0.979543
vn -0.123018 -0.070430 0.989902
vn -0.046349 -0.041047 0.998082
vn 0.028934 -0.042578 0.998674
vn 0.887398 -0.155119 -0.434122
vn 0.843272 -0.082718 -0.531084
vn 0.985988 -0.152985 -0.066508
vn 0.974145 -0.207190 -0.090072
vn 0.817946 -0.046254 -0.573433
vn 0.991627 -0.118426 -0.051484
vn 0.819801 -0.031373 -0.571789
vn 0.994010 -0.100224 -0.043572
vn 0.853118 -0.017959 -0.521409
vn 0.996586 -0.075711 -0.032915
vn 0.917703 -0.013686 -0.397031
vn 0.998290 -0.053869 -0.022706
vn 0.965867 -0.027633 -0.257559
vn 0.998512 -0.054426 0.003508
vn 0.880439 -0.181159 0.438189
vn 0.930335 -0.233119 0.283077
vn 0.848134 -0.153172 0.507156
vn 0.845574 -0.137929 0.515733
vn 0.872314 -0.114665 0.475311
vn 0.932739 -0.085901 0.350170
vn 0.976882 -0.072205 0.201216
vn -0.355341 -0.409142 -0.840438
vn -0.412352 -0.275915 -0.868238
vn -0.175776 -0.321149 -0.930573
vn -0.193041 -0.442257 -0.875868
vn -0.429989 -0.160639 -0.888428
vn -0.158318 -0.212281 -0.964299
vn -0.419325 -0.064942 -0.905510
vn -0.147529 -0.122528 -0.981439
vn -0.385500 -0.012390 -0.922625
vn -0.142879 -0.065567 -0.987566
vn -0.316823 0.016853 -0.948335
vn -0.137860 -0.022010 -0.990207
vn -0.242007 0.033012 -0.969713
vn -0.129357 0.003561 -0.991592
vn 0.064176 -0.341848 -0.937561
vn -0.015073 -0.463488 -0.885975
vn 0.096038 -0.246133 -0.964466
vn 0.096758 -0.164357 -0.981644
vn 0.070510 -0.108697 -0.991571
vn 0.006394 -0.055141 -0.998458
vn -0.054552 -0.015766 -0.998386
vn -0.125377 -0.428090 0.894997
vn -0.069459 -0.331591 0.940863
vn -0.365063 -0.416265 0.832738
vn -0.340186 -0.510306 0.789849
vn -0.051810 -0.239624 0.969482
vn -0.373825 -0.301588 0.877097
vn -0.059374 -0.159599 0.985395
vn -0.383361 -0.205883 0.900359
vn -0.093235 -0.113313 0.989175
vn -0.389919 -0.137099 0.910586
vn -0.169714 -0.083932 0.981913
vn -0.383470 -0.090831 0.919076
vn -0.254963 -0.061436 0.964997
vn -0.387923 -0.066189 0.919312
vn -0.720170 -0.467132 0.512975
vn -0.597485 -0.569347 0.564672
vn -0.785133 -0.354468 0.507857
vn -0.802660 -0.239588 0.546200
vn -0.764551 -0.151964 0.626394
vn -0.655522 -0.094753 0.749208
vn -0.538598 -0.070188 0.839634
vn 0.742480 -0.479023 -0.468252
vn 0.652186 -0.330561 -0.682190
vn 0.757159 -0.385299 0.527499
vn 0.691035 -0.464917 0.553465
vn 0.620480 -0.217608 -0.753427
vn 0.817398 -0.278235 0.504425
vn 0.637391 -0.130042 -0.759488
vn 0.840527 -0.174125 0.513025
vn 0.717739 -0.061375 -0.693603
vn 0.853383 -0.076062 0.515705
vn 0.903515 -0.016928 -0.428222
vn 0.850985 -0.016379 0.524935
vn 0.999358 -0.015999 -0.032050
vn 0.849715 -0.013789 0.527061
vn 0.379192 -0.203471 0.902670
vn 0.436832 -0.303480 0.846804
vn 0.356307 -0.133665 0.924759
vn 0.360468 -0.080515 0.929290
vn 0.395539 -0.037043 0.917702
vn 0.491042 -0.009671 0.871083
vn 0.613533 -0.010093 0.789605
s 1
g single_grass6 group
usemtl single_grass6SG
f 1/1/1 2/2/2 9/9/3 8/8/4
f 2/2/2 3/3/5 10/10/6 9/9/3
f 3/3/5 4/4/7 11/11/8 10/10/6
f 4/4/7 5/5/9 12/12/10 11/11/8
f 5/5/9 6/6/11 13/13/12 12/12/10
f 6/6/11 7/7/13 14/14/14 13/13/12
f 8/8/4 9/9/3 16/16/15 15/15/16
f 9/9/3 10/10/6 17/17/17 16/16/15
f 10/10/6 11/11/8 18/18/18 17/17/17
f 11/11/8 12/12/10 19/19/19 18/18/18
f 12/12/10 13/13/12 20/20/20 19/19/19
f 13/13/12 14/14/14 21/21/21 20/20/20
s 2
f 22/22/22 23/23/23 30/24/24 29/25/25
f 23/23/23 24/26/26 31/27/27 30/24/24
f 24/26/26 25/28/28 32/29/29 31/27/27
f 25/28/28 26/30/30 33/31/31 32/29/29
f 26/30/30 27/32/32 34/33/33 33/31/31
f 27/32/32 28/34/34 35/35/35 34/33/33
f 29/25/25 30/24/24 37/36/36 36/37/37
f 30/24/24 31/27/27 38/38/38 37/36/36
f 31/27/27 32/29/29 39/39/39 38/38/38
f 32/29/29 33/31/31 40/40/40 39/39/39
f 33/31/31 34/33/33 41/41/41 40/40/40
f 34/33/33 35/35/35 42/42/42 41/41/41
s 3
f 43/43/43 44/44/44 51/45/45 50/46/46
f 44/44/44 45/47/47 52/48/48 51/45/45
f 45/47/47 46/49/49 53/50/50 52/48/48
f 46/49/49 47/51/51 54/52/52 53/50/50
f 47/51/51 48/53/53 55/54/54 54/52/52
f 48/53/53 49/55/55 56/56/56 55/54/54
f 50/46/46 51/45/45 58/57/57 57/58/58
f 51/45/45 52/48/48 59/59/59 58/57/57
f 52/48/48 53/50/50 60/60/60 59/59/59
f 53/50/50 54/52/52 61/61/61 60/60/60
f 54/52/52 55/54/54 62/62/62 61/61/61
f 55/54/54 56/56/56 63/63/63 62/62/62
s 4
f 64/64/64 65/65/65 72/66/66 71/67/67
f 65/65/65 66/68/68 73/69/69 72/66/66
f 66/68/68 67/70/70 74/71/71 73/69/69
f 67/70/70 68/72/72 75/73/73 74/71/71
f 68/72/72 69/74/74 76/75/75 75/73/73
f 69/74/74 70/76/76 77/77/77 76/75/75
f 71/67/67 72/66/66 79/78/78 78/79/79
f 72/66/66 73/69/69 80/80/80 79/78/78
f 73/69/69 74/71/71 81/81/81 80/80/80
f 74/71/71 75/73/73 82/82/82 81/81/81
f 75/73/73 76/75/75 83/83/83 82/82/82
f 76/75/75 77/77/77 84/84/84 83/83/83
s 5
f 85/85/85 86/86/86 93/87/87 92/88/88
f 86/86/86 87/89/89 94/90/90 93/87/87
f 87/89/89 88/91/91 95/92/92 94/90/90
f 88/91/91 89/93/93 96/94/94 95/92/92
f 89/93/93 90/95/95 97/96/96 96/94/94
f 90/95/95 91/97/97 98/98/98 97/96/96
f 92/88/88 93/87/87 100/99/99 99/100/100
f 93/87/87 94/90/90 101/101/101 100/99/99
f 94/90/90 95/92/92 102/102/102 101/101/101
f 95/92/92 96/94/94 103/103/103 102/102/102
f 96/94/94 97/96/96 104/104/104 103/103/103
f 97/96/96 98/98/98 105/105/105 104/104/104
s 6
f 106/106/106 107/107/107 114/108/108 113/109/109
f 107/107/107 108/110/110 115/111/111 114/108/108
f 108/110/110 109/112/112 116/113/113 115/111/111
f 109/112/112 110/114/114 117/115/115 116/113/113
f 110/114/114 111/116/116 118/117/117 117/115/115
f 111/116/116 112/118/118 119/119/119 118/117/117
f 113/109/109 114/108/108 121/120/120 120/121/121
f 114/108/108 115/111/111 122/122/122 121/120/120
f 115/111/111 116/113/113 123/123/123 122/122/122
f 116/113/113 117/115/115 124/124/124 123/123/123
f 117/115/115 118/117/117 125/125/125 124/124/124
f 118/117/117 119/119/119 126/126/126 125/125/125
s 7
f 127/127/127 128/128/128 135/129/129 134/130/130
f 128/128/128 129/131/131 136/132/132 135/129/129
f 129/131/131 130/133/133 137/134/134 136/132/132
f 130/133/133 131/135/135 138/136/136 137/134/134
f 131/135/135 132/137/137 139/138/138 138/136/136
f 132/137/137 133/139/139 140/140/140 139/138/138
f 134/130/130 135/129/129 142/141/141 141/142/142
f 135/129/129 136/132/132 143/143/143 142/141/141
f 136/132/132 137/134/134 144/144/144 143/143/143
f 137/134/134 138/136/136 145/145/145 144/144/144
f 138/136/136 139/138/138 146/146/146 145/145/145
f 139/138/138 140/140/140 147/147/147 146/146/146
