# This file uses centimeters as units for non-parametric coordinates.

mtllib pen.mtl
g default
v 2.197799 -1.117661 -0.434882
v 2.294569 -1.117661 -0.423978
v 2.386487 -1.117661 -0.391815
v 2.468944 -1.117661 -0.340004
v 2.537803 -1.117661 -0.271144
v 2.589614 -1.117661 -0.188688
v 2.621777 -1.117661 -0.096770
v 2.632681 -1.117661 0.000000
v 2.621777 -1.117661 0.096771
v 2.589614 -1.117661 0.188689
v 2.537803 -1.117661 0.271145
v 2.468943 -1.117661 0.340005
v 2.386487 -1.117661 0.391815
v 2.294569 -1.117661 0.423979
v 2.197799 -1.117661 0.434882
v 2.101028 -1.117661 0.423979
v 2.009110 -1.117661 0.391815
v 1.926654 -1.117661 0.340005
v 1.857794 -1.117661 0.271145
v 1.805984 -1.117661 0.188689
v 1.773820 -1.117661 0.096771
v 1.762917 -1.117661 0.000000
v 1.773820 -1.117661 -0.096770
v 1.805984 -1.117661 -0.188688
v 1.857794 -1.117661 -0.271144
v 1.926654 -1.117661 -0.340004
v 2.009110 -1.117661 -0.391815
v 2.101028 -1.117661 -0.423978
v 2.198397 -1.992412 -0.321305
v 2.197799 -1.836950 -0.425966
v 2.197961 -1.962424 -0.381452
v 2.197813 -1.914111 -0.412853
v 2.281961 -1.991680 -0.314176
v 2.292585 -1.836950 -0.415286
v 2.286361 -1.961880 -0.372404
v 2.290136 -1.913708 -0.402847
v 2.363755 -1.989144 -0.294469
v 2.382619 -1.836950 -0.383782
v 2.371019 -1.959934 -0.346230
v 2.377978 -1.912232 -0.373523
v 2.418685 -1.987022 -0.271553
v 2.463385 -1.836950 -0.333034
v 2.444923 -1.954514 -0.307858
v 2.458714 -1.908840 -0.326765
v 2.444580 -1.989724 -0.229005
v 2.530833 -1.836950 -0.265586
v 2.495359 -1.960489 -0.246172
v 2.521359 -1.912645 -0.258630
v 2.475878 -1.993412 -0.156724
v 2.581581 -1.836950 -0.184820
v 2.537165 -1.963398 -0.170302
v 2.568500 -1.914816 -0.179554
v 2.494741 -1.995975 -0.079759
v 2.613086 -1.836950 -0.094786
v 2.562880 -1.965332 -0.087089
v 2.597648 -1.916201 -0.091962
v 2.505931 -1.995883 -0.000141
v 2.623765 -1.836950 0.000000
v 2.573646 -1.965177 -0.000045
v 2.608374 -1.916067 -0.000008
v 2.499929 -1.994899 0.079377
v 2.613086 -1.836950 0.094787
v 2.565101 -1.964444 0.086918
v 2.598562 -1.915524 0.091934
v 2.477500 -1.993228 0.156120
v 2.581581 -1.836950 0.184820
v 2.537879 -1.963229 0.170024
v 2.568791 -1.914669 0.179481
v 2.441946 -1.990173 0.229029
v 2.530833 -1.836950 0.265586
v 2.494221 -1.960933 0.246174
v 2.520918 -1.912967 0.258588
v 2.411858 -1.987509 0.271434
v 2.463385 -1.836950 0.333034
v 2.442184 -1.954945 0.307680
v 2.457903 -1.909279 0.326471
v 2.360072 -1.989164 0.294222
v 2.382619 -1.836950 0.383783
v 2.369474 -1.959967 0.346193
v 2.377553 -1.912293 0.373490
v 2.280705 -1.991886 0.313031
v 2.292585 -1.836950 0.415287
v 2.285773 -1.962088 0.371925
v 2.289941 -1.913845 0.402653
v 2.198875 -1.992659 0.319943
v 2.197799 -1.836950 0.425967
v 2.198231 -1.962647 0.380873
v 2.197916 -1.914271 0.412620
v 2.117318 -1.991699 0.313757
v 2.103012 -1.836950 0.415287
v 2.110811 -1.961919 0.372257
v 2.105924 -1.913770 0.402778
v 2.033499 -1.988896 0.294854
v 2.012979 -1.836950 0.383783
v 2.025170 -1.959765 0.346435
v 2.017738 -1.912125 0.373595
v 1.988488 -1.986788 0.281315
v 1.932213 -1.836950 0.333034
v 1.955072 -1.954498 0.311572
v 1.937832 -1.908885 0.327541
v 1.952539 -1.989744 0.229553
v 1.864765 -1.836950 0.265586
v 1.900905 -1.960595 0.246394
v 1.874490 -1.912786 0.258668
v 1.919592 -1.993237 0.157407
v 1.814016 -1.836950 0.184820
v 1.858370 -1.963324 0.170507
v 1.827055 -1.914767 0.179589
v 1.898637 -1.995315 0.080127
v 1.782512 -1.836950 0.094787
v 1.831763 -1.964847 0.087203
v 1.797548 -1.915871 0.091995
v 1.892213 -1.996212 0.000041
v 1.771832 -1.836950 0.000000
v 1.823033 -1.965529 0.000028
v 1.787667 -1.916353 0.000012
v 1.897806 -1.995138 -0.079917
v 1.782512 -1.836950 -0.094786
v 1.831408 -1.964700 -0.087092
v 1.797403 -1.915758 -0.091957
v 1.919728 -1.993313 -0.157247
v 1.814016 -1.836950 -0.184820
v 1.858423 -1.963376 -0.170405
v 1.827076 -1.914790 -0.179546
v 1.954197 -1.990056 -0.230281
v 1.864765 -1.836950 -0.265585
v 1.901629 -1.960901 -0.246593
v 1.874759 -1.912977 -0.258662
v 1.984506 -1.987345 -0.272049
v 1.932213 -1.836950 -0.333034
v 1.953723 -1.954810 -0.307914
v 1.937776 -1.909210 -0.326517
v 2.035636 -1.988821 -0.295617
v 2.012979 -1.836950 -0.383782
v 2.026037 -1.959666 -0.346800
v 2.017957 -1.912103 -0.373725
v 2.116226 -1.991507 -0.314820
v 2.103012 -1.836950 -0.415286
v 2.110234 -1.961720 -0.372701
v 2.105711 -1.913609 -0.402958
v 2.199462 -2.022051 -0.000526
v 2.299713 -2.018034 -0.000608
v 2.100840 -2.018158 -0.000356
v 2.100321 -2.015929 0.075985
v 2.199039 -2.019678 0.075859
v 2.298438 -2.015983 0.075302
v 2.296352 -2.016104 -0.076812
v 2.199788 -2.019660 -0.077223
v 2.100719 -2.015980 -0.076864
v 2.109476 -2.010493 -0.154028
v 2.200877 -2.013031 -0.155153
v 2.289825 -2.010496 -0.153797
v 2.106730 -2.010336 0.152956
v 2.199006 -2.013143 0.153047
v 2.290824 -2.010595 0.151110
v 2.388255 -2.003112 0.149200
v 2.404203 -2.005800 0.075140
v 2.406176 -2.007166 -0.000359
v 2.398352 -2.006468 -0.075744
v 2.388689 -2.003077 -0.150190
v 2.010601 -2.002921 0.151705
v 1.997862 -2.006089 0.076544
v 1.994965 -2.007427 -0.000024
v 1.996050 -2.005938 -0.076405
v 2.010890 -2.003029 -0.151709
v 2.028662 -1.998337 0.224626
v 2.117431 -2.002447 0.232062
v 2.199707 -2.003863 0.234087
v 2.282336 -2.002585 0.230395
v 2.364447 -1.998705 0.223704
v 2.032294 -1.998424 -0.226516
v 2.116560 -2.002283 -0.234233
v 2.199470 -2.003634 -0.237054
v 2.283908 -2.002386 -0.232808
v 2.370347 -1.998527 -0.223793
v 2.197799 0.033457 -0.419205
v 2.197799 0.008089 -0.474110
v 2.291081 0.033457 -0.408694
v 2.303298 0.008089 -0.462223
v 2.379685 0.033457 -0.377690
v 2.403507 0.008089 -0.427158
v 2.459169 0.033457 -0.327747
v 2.493402 0.008089 -0.370674
v 2.525547 0.033457 -0.261370
v 2.568473 0.008089 -0.295602
v 2.575489 0.033457 -0.181886
v 2.624957 0.008089 -0.205708
v 2.606493 0.033457 -0.093282
v 2.660022 0.008089 -0.105499
v 2.617004 0.033457 0.000000
v 2.671909 0.008089 0.000000
v 2.606493 0.033457 0.093282
v 2.660022 0.008089 0.105500
v 2.575489 0.033457 0.181886
v 2.624957 0.008089 0.205709
v 2.525547 0.033457 0.261370
v 2.568473 0.008089 0.295603
v 2.459169 0.033457 0.327748
v 2.493402 0.008089 0.370674
v 2.379685 0.033457 0.377691
v 2.403507 0.008089 0.427159
v 2.291081 0.033457 0.408695
v 2.303298 0.008089 0.462223
v 2.197799 0.033457 0.419205
v 2.197799 0.008089 0.474110
v 2.104517 0.033457 0.408695
v 2.092300 0.008089 0.462223
v 2.015913 0.033457 0.377691
v 1.992090 0.008089 0.427159
v 1.936429 0.033457 0.327748
v 1.902196 0.008089 0.370674
v 1.870051 0.033457 0.261370
v 1.827125 0.008089 0.295603
v 1.820108 0.033457 0.181887
v 1.770640 0.008089 0.205709
v 1.789104 0.033457 0.093282
v 1.735576 0.008089 0.105500
v 1.778594 0.033457 0.000000
v 1.723689 0.008089 0.000000
v 1.789104 0.033457 -0.093282
v 1.735576 0.008089 -0.105499
v 1.820108 0.033457 -0.181886
v 1.770640 0.008089 -0.205708
v 1.870051 0.033457 -0.261370
v 1.827125 0.008089 -0.295602
v 1.936429 0.033457 -0.327747
v 1.902196 0.008089 -0.370674
v 2.015913 0.033457 -0.377690
v 1.992090 0.008089 -0.427158
v 2.104517 0.033457 -0.408694
v 2.092300 0.008089 -0.462223
v 2.197799 0.027427 -0.446631
v 2.297184 0.027427 -0.435433
v 2.391585 0.027427 -0.402400
v 2.476269 0.027427 -0.349190
v 2.546989 0.027427 -0.278470
v 2.600199 0.027427 -0.193786
v 2.633232 0.027427 -0.099384
v 2.644430 0.027427 0.000000
v 2.633232 0.027427 0.099385
v 2.600199 0.027427 0.193786
v 2.546989 0.027427 0.278470
v 2.476269 0.027427 0.349190
v 2.391585 0.027427 0.402401
v 2.297184 0.027427 0.435433
v 2.197799 0.027427 0.446631
v 2.098414 0.027427 0.435433
v 2.004013 0.027427 0.402401
v 1.919329 0.027427 0.349190
v 1.848609 0.027427 0.278470
v 1.795398 0.027427 0.193786
v 1.762366 0.027427 0.099385
v 1.751168 0.027427 0.000000
v 1.762366 0.027427 -0.099384
v 1.795398 0.027427 -0.193786
v 1.848609 0.027427 -0.278470
v 1.919329 0.027427 -0.349190
v 2.004013 0.027427 -0.402400
v 2.098414 0.027427 -0.435433
v 2.197799 -1.320688 -0.474110
v 2.303298 -1.320688 -0.462223
v 2.403507 -1.320688 -0.427158
v 2.493402 -1.320688 -0.370674
v 2.568473 -1.320688 -0.295602
v 2.624957 -1.320688 -0.205708
v 2.660022 -1.320688 -0.105499
v 2.671909 -1.320688 0.000000
v 2.660022 -1.320688 0.105500
v 2.624957 -1.320688 0.205709
v 2.568473 -1.320688 0.295603
v 2.493402 -1.320688 0.370674
v 2.403507 -1.320688 0.427159
v 2.303298 -1.320688 0.462223
v 2.197799 -1.320688 0.474110
v 2.092300 -1.320688 0.462223
v 1.992090 -1.320688 0.427159
v 1.902196 -1.320688 0.370674
v 1.827125 -1.320688 0.295603
v 1.770640 -1.320688 0.205709
v 1.735576 -1.320688 0.105500
v 1.723689 -1.320688 0.000000
v 1.735576 -1.320688 -0.105499
v 1.770640 -1.320688 -0.205708
v 1.827125 -1.320688 -0.295602
v 1.902196 -1.320688 -0.370674
v 1.992090 -1.320688 -0.427158
v 2.092300 -1.320688 -0.462223
v 2.298665 -1.333828 -0.441924
v 2.197799 -1.333828 -0.453289
v 2.394474 -1.333828 -0.408399
v 2.480420 -1.333828 -0.354396
v 2.552195 -1.333828 -0.282621
v 2.606199 -1.333828 -0.196675
v 2.639723 -1.333828 -0.100866
v 2.651088 -1.333828 0.000000
v 2.639723 -1.333828 0.100867
v 2.606199 -1.333828 0.196675
v 2.552195 -1.333828 0.282622
v 2.480420 -1.333828 0.354396
v 2.394474 -1.333828 0.408400
v 2.298665 -1.333828 0.441925
v 2.197799 -1.333828 0.453290
v 2.096933 -1.333828 0.441925
v 2.001124 -1.333828 0.408400
v 1.915178 -1.333828 0.354396
v 1.843403 -1.333828 0.282622
v 1.789399 -1.333828 0.196675
v 1.755874 -1.333828 0.100867
v 1.744509 -1.333828 0.000000
v 1.755874 -1.333828 -0.100866
v 1.789399 -1.333828 -0.196675
v 1.843403 -1.333828 -0.282621
v 1.915178 -1.333828 -0.354396
v 2.001124 -1.333828 -0.408399
v 2.096933 -1.333828 -0.441924
v 2.197799 -1.342062 -0.426233
v 2.292645 -1.342062 -0.415547
v 2.382735 -1.342062 -0.384023
v 2.463551 -1.342062 -0.333242
v 2.531041 -1.342062 -0.265752
v 2.581822 -1.342062 -0.184935
v 2.613346 -1.342062 -0.094846
v 2.624032 -1.342062 0.000000
v 2.613346 -1.342062 0.094846
v 2.581822 -1.342062 0.184936
v 2.531041 -1.342062 0.265752
v 2.463551 -1.342062 0.333243
v 2.382735 -1.342062 0.384023
v 2.292645 -1.342062 0.415547
v 2.197799 -1.342062 0.426234
v 2.102953 -1.342062 0.415547
v 2.012863 -1.342062 0.384023
v 1.932047 -1.342062 0.333243
v 1.864556 -1.342062 0.265752
v 1.813776 -1.342062 0.184936
v 1.782252 -1.342062 0.094846
v 1.771565 -1.342062 0.000000
v 1.782252 -1.342062 -0.094846
v 1.813776 -1.342062 -0.184936
v 1.864556 -1.342062 -0.265752
v 1.932047 -1.342062 -0.333242
v 2.012863 -1.342062 -0.384023
v 2.102953 -1.342062 -0.415547
v 2.639674 -0.060030 0.000000
v 2.639680 9.094563 -0.000000
v 2.555282 -0.060029 0.259730
v 2.555289 9.094563 0.259729
v 2.334343 -0.060029 0.420251
v 2.334349 9.094563 0.420250
v 2.061248 -0.060029 0.420251
v 2.061254 9.094563 0.420250
v 1.840309 -0.060029 0.259730
v 1.840315 9.094563 0.259729
v 1.755918 -0.060029 0.000000
v 1.755924 9.094563 -0.000000
v 1.840309 -0.060029 -0.259729
v 1.840315 9.094563 -0.259730
v 2.061248 -0.060029 -0.420251
v 2.061254 9.094563 -0.420251
v 2.334344 -0.060029 -0.420251
v 2.334349 9.094563 -0.420251
v 2.555282 -0.060029 -0.259729
v 2.555288 9.094563 -0.259730
v 2.219099 11.268496 0.000000
v 2.215032 11.268496 0.012518
v 2.204384 11.268496 0.020254
v 2.191221 11.268496 0.020254
v 2.180573 11.268496 0.012518
v 2.176506 11.268496 0.000000
v 2.180573 11.268496 -0.012517
v 2.191221 11.268496 -0.020254
v 2.204384 11.268496 -0.020254
v 2.215032 11.268496 -0.012517
v 2.212643 11.273602 0.000000
v 2.209808 11.273602 0.008723
v 2.202389 11.273602 0.014114
v 2.193217 11.273602 0.014114
v 2.185797 11.273602 0.008723
v 2.182963 11.273602 0.000000
v 2.185797 11.273602 -0.008722
v 2.193217 11.273602 -0.014113
v 2.202389 11.273602 -0.014113
v 2.209808 11.273602 -0.008722
v 2.197803 11.283295 0.000000
vt 0.803679 0.097223
vt 0.812994 0.038236
vt 0.821110 0.039622
vt 0.811268 0.098619
vt 0.826488 0.102004
vt 0.837206 0.042551
vt 0.845177 0.044024
vt 0.623423 0.097509
vt 0.623150 0.035651
vt 0.631126 0.095993
vt 0.631276 0.034551
vt 0.638763 0.094541
vt 0.639444 0.033497
vt 0.646363 0.093264
vt 0.647649 0.032515
vt 0.653931 0.092167
vt 0.655880 0.031618
vt 0.661480 0.091254
vt 0.664136 0.030819
vt 0.669004 0.090453
vt 0.672417 0.030124
vt 0.676494 0.089715
vt 0.680730 0.029546
vt 0.683941 0.088970
vt 0.689076 0.029105
vt 0.691330 0.088303
vt 0.697447 0.028822
vt 0.698702 0.087811
vt 0.705827 0.028713
vt 0.706082 0.087635
vt 0.714192 0.028776
vt 0.713469 0.087842
vt 0.722525 0.028996
vt 0.720860 0.088334
vt 0.730826 0.029349
vt 0.728273 0.088933
vt 0.739099 0.029810
vt 0.735748 0.089534
vt 0.747354 0.030370
vt 0.743255 0.090108
vt 0.755601 0.031023
vt 0.750780 0.090678
vt 0.763840 0.031770
vt 0.758313 0.091312
vt 0.772068 0.032612
vt 0.765849 0.092070
vt 0.780284 0.033549
vt 0.773392 0.092915
vt 0.788487 0.034582
vt 0.780947 0.093849
vt 0.796676 0.035708
vt 0.788519 0.094856
vt 0.804847 0.036928
vt 0.796097 0.095983
vt 0.818869 0.100216
vt 0.829184 0.041070
vt 0.817214 0.106421
vt 0.809845 0.104861
vt 0.816142 0.111011
vt 0.808759 0.109512
vt 0.697348 0.154796
vt 0.704518 0.155612
vt 0.824603 0.108164
vt 0.823436 0.112637
vt 0.690381 0.152876
vt 0.625286 0.103913
vt 0.627150 0.108183
vt 0.629607 0.112403
vt 0.632802 0.102295
vt 0.633784 0.106866
vt 0.683693 0.147065
vt 0.640220 0.100932
vt 0.641024 0.105693
vt 0.681213 0.140822
vt 0.647613 0.099813
vt 0.648399 0.104745
vt 0.679793 0.134203
vt 0.655012 0.098733
vt 0.655836 0.103677
vt 0.679047 0.127359
vt 0.662449 0.097851
vt 0.663346 0.102736
vt 0.679727 0.120593
vt 0.669913 0.097038
vt 0.670945 0.101838
vt 0.681782 0.114100
vt 0.677390 0.096203
vt 0.678657 0.100821
vt 0.684814 0.107952
vt 0.684738 0.095087
vt 0.685523 0.099524
vt 0.687000 0.104351
vt 0.691962 0.094520
vt 0.692260 0.099029
vt 0.692113 0.103967
vt 0.699042 0.093974
vt 0.699175 0.098502
vt 0.699086 0.103693
vt 0.706082 0.093783
vt 0.706046 0.098302
vt 0.705939 0.103596
vt 0.713142 0.094048
vt 0.712930 0.098599
vt 0.712780 0.103800
vt 0.720317 0.094654
vt 0.720092 0.099248
vt 0.720202 0.104144
vt 0.727523 0.095125
vt 0.726554 0.099484
vt 0.724671 0.104232
vt 0.735058 0.096078
vt 0.733998 0.100767
vt 0.727062 0.108898
vt 0.742594 0.096741
vt 0.741744 0.101607
vt 0.729571 0.115214
vt 0.750121 0.097391
vt 0.749450 0.102367
vt 0.731127 0.121907
vt 0.757621 0.098029
vt 0.757112 0.103084
vt 0.731449 0.128785
vt 0.765104 0.098719
vt 0.764748 0.103686
vt 0.730794 0.135616
vt 0.772590 0.099454
vt 0.772379 0.104311
vt 0.728743 0.142190
vt 0.780085 0.100188
vt 0.780018 0.104859
vt 0.725633 0.148354
vt 0.787599 0.100819
vt 0.786999 0.105052
vt 0.786496 0.109653
vt 0.795037 0.102189
vt 0.793911 0.106583
vt 0.718563 0.153774
vt 0.802449 0.103497
vt 0.801359 0.108080
vt 0.711601 0.155253
vt 0.691225 0.109598
vt 0.712937 0.110275
vt 0.705726 0.110327
vt 0.712567 0.141824
vt 0.704711 0.141750
vt 0.704991 0.135336
vt 0.713527 0.135443
vt 0.687949 0.134396
vt 0.688625 0.140673
vt 0.698477 0.110160
vt 0.697073 0.141376
vt 0.696677 0.134984
vt 0.720743 0.110020
vt 0.722492 0.135384
vt 0.721012 0.141703
vt 0.722825 0.122495
vt 0.722815 0.128956
vt 0.713750 0.129144
vt 0.714028 0.122862
vt 0.705427 0.122924
vt 0.705201 0.129093
vt 0.696524 0.128706
vt 0.696754 0.122511
vt 0.687690 0.121700
vt 0.687416 0.128030
vt 0.718988 0.147954
vt 0.711758 0.148494
vt 0.704632 0.148559
vt 0.697394 0.147971
vt 0.690026 0.146906
vt 0.722018 0.116150
vt 0.713719 0.116599
vt 0.705608 0.116733
vt 0.697528 0.116416
vt 0.689118 0.115591
vt 0.807505 0.115037
vt 0.799745 0.113247
vt 0.791906 0.111120
vt 0.722969 0.151853
vt 0.781256 0.109883
vt 0.773034 0.110019
vt 0.764791 0.109765
vt 0.756503 0.109497
vt 0.748227 0.108385
vt 0.739943 0.107130
vt 0.731627 0.105556
vt 0.681329 0.105594
vt 0.672912 0.107271
vt 0.664773 0.108585
vt 0.656804 0.109903
vt 0.648870 0.110916
vt 0.641238 0.111385
vt 0.633953 0.111863
vt 0.685769 0.150750
vt 0.822990 0.117540
vt 0.815363 0.116348
vt 0.830251 0.114402
vt 0.828033 0.118638
vt 0.832090 0.110168
vt 0.834160 0.103889
vt 0.615071 0.036763
vt 0.520276 0.034109
vt 0.520563 0.144613
vt 0.511778 0.144528
vt 0.511488 0.034234
vt 0.493906 0.034325
vt 0.494227 0.144548
vt 0.485455 0.144587
vt 0.485116 0.034349
vt 0.476682 0.144630
vt 0.476326 0.034371
vt 0.467908 0.144673
vt 0.467537 0.034393
vt 0.459135 0.144715
vt 0.458748 0.034418
vt 0.450360 0.144756
vt 0.449961 0.034445
vt 0.441585 0.144796
vt 0.441173 0.034474
vt 0.432810 0.144835
vt 0.432387 0.034505
vt 0.424034 0.144873
vt 0.423600 0.034539
vt 0.415258 0.144910
vt 0.414814 0.034574
vt 0.406481 0.144947
vt 0.406029 0.034611
vt 0.397705 0.144982
vt 0.397243 0.034650
vt 0.388928 0.145016
vt 0.388458 0.034691
vt 0.380150 0.145049
vt 0.379673 0.034734
vt 0.371373 0.145082
vt 0.370888 0.034780
vt 0.362595 0.145113
vt 0.362104 0.034827
vt 0.353818 0.145144
vt 0.353319 0.034876
vt 0.345040 0.145175
vt 0.344535 0.034926
vt 0.336261 0.145210
vt 0.335750 0.034975
vt 0.327483 0.145258
vt 0.326964 0.035014
vt 0.318704 0.145338
vt 0.318175 0.035025
vt 0.309926 0.145493
vt 0.309379 0.034965
vt 0.301156 0.145816
vt 0.300569 0.034734
vt 0.292416 0.146488
vt 0.291735 0.034108
vt 0.537799 0.033172
vt 0.538196 0.145535
vt 0.529366 0.144879
vt 0.529055 0.033823
vt 0.503001 0.144522
vt 0.502697 0.034293
vt 0.520424 0.147361
vt 0.511721 0.147293
vt 0.502980 0.147295
vt 0.494222 0.147325
vt 0.485455 0.147365
vt 0.476685 0.147408
vt 0.467912 0.147451
vt 0.459139 0.147493
vt 0.450365 0.147535
vt 0.441590 0.147575
vt 0.432815 0.147614
vt 0.424039 0.147652
vt 0.415263 0.147689
vt 0.406487 0.147725
vt 0.397711 0.147760
vt 0.388934 0.147794
vt 0.380157 0.147828
vt 0.371380 0.147860
vt 0.362603 0.147891
vt 0.353826 0.147922
vt 0.345051 0.147953
vt 0.336280 0.147987
vt 0.327518 0.148032
vt 0.318779 0.148106
vt 0.310087 0.148247
vt 0.301498 0.148556
vt 0.293130 0.149390
vt 0.537442 0.148413
vt 0.529046 0.147606
vt 0.520310 0.149667
vt 0.511675 0.149606
vt 0.502963 0.149610
vt 0.494216 0.149641
vt 0.485454 0.149681
vt 0.476685 0.149725
vt 0.467914 0.149768
vt 0.459140 0.149810
vt 0.450366 0.149851
vt 0.441592 0.149891
vt 0.432817 0.149930
vt 0.424041 0.149968
vt 0.415265 0.150006
vt 0.406489 0.150042
vt 0.397713 0.150077
vt 0.388936 0.150111
vt 0.380159 0.150145
vt 0.371383 0.150177
vt 0.362606 0.150208
vt 0.353830 0.150238
vt 0.345057 0.150269
vt 0.336291 0.150304
vt 0.327542 0.150348
vt 0.318833 0.150420
vt 0.310213 0.150558
vt 0.301782 0.150862
vt 0.293781 0.151710
vt 0.536791 0.150712
vt 0.528771 0.149898
vt 0.511442 0.032206
vt 0.520172 0.032090
vt 0.502676 0.032261
vt 0.493896 0.032291
vt 0.485110 0.032314
vt 0.476321 0.032336
vt 0.467533 0.032359
vt 0.458745 0.032383
vt 0.449957 0.032410
vt 0.441170 0.032439
vt 0.432383 0.032470
vt 0.423596 0.032504
vt 0.414810 0.032539
vt 0.406024 0.032576
vt 0.397239 0.032615
vt 0.388453 0.032656
vt 0.379668 0.032699
vt 0.370884 0.032745
vt 0.362099 0.032792
vt 0.353315 0.032842
vt 0.344532 0.032892
vt 0.335751 0.032941
vt 0.326975 0.032982
vt 0.318210 0.032998
vt 0.309469 0.032949
vt 0.300786 0.032735
vt 0.292270 0.032003
vt 0.528823 0.031816
vt 0.537285 0.031055
vt 0.318250 0.030668
vt 0.326989 0.030649
vt 0.511395 0.029874
vt 0.520059 0.029761
vt 0.432382 0.030136
vt 0.441169 0.030105
vt 0.309573 0.030626
vt 0.423595 0.030170
vt 0.301043 0.030425
vt 0.414809 0.030205
vt 0.292897 0.029679
vt 0.406023 0.030242
vt 0.528556 0.029493
vt 0.536660 0.028712
vt 0.397237 0.030281
vt 0.388452 0.030322
vt 0.502658 0.029927
vt 0.379667 0.030365
vt 0.493889 0.029958
vt 0.370882 0.030411
vt 0.485107 0.029980
vt 0.362097 0.030458
vt 0.476320 0.030002
vt 0.353314 0.030508
vt 0.467532 0.030025
vt 0.344532 0.030558
vt 0.458744 0.030049
vt 0.335755 0.030607
vt 0.449956 0.030076
vt 0.205544 0.028744
vt 0.206707 0.791521
vt 0.184322 0.789207
vt 0.182586 0.028764
vt 0.161900 0.787849
vt 0.159578 0.028806
vt 0.139466 0.787413
vt 0.136539 0.028880
vt 0.117044 0.787935
vt 0.113489 0.028990
vt 0.094659 0.789404
vt 0.090447 0.029138
vt 0.072345 0.791900
vt 0.067434 0.029319
vt 0.050132 0.795426
vt 0.044471 0.029523
vt 0.028059 0.800041
vt 0.021581 0.029737
vt 0.136645 0.969637
vt 0.135779 0.970345
vt 0.251223 0.028713
vt 0.251264 0.799087
vt 0.229033 0.794793
vt 0.228430 0.028734
vt 0.142985 0.968516
vt 0.144002 0.968927
vt 0.143406 0.969397
vt 0.142540 0.969133
vt 0.137565 0.968994
vt 0.138599 0.968556
vt 0.139683 0.968259
vt 0.140800 0.968179
vt 0.141914 0.968241
vt 0.144883 0.969552
vt 0.145633 0.970319
vt 0.141178 0.970384
vt 0.140845 0.968872
vt 0.141753 0.968822
vt 0.137535 0.970192
vt 0.136627 0.970746
vt 0.139918 0.968851
vt 0.139116 0.969211
vt 0.144196 0.970566
vt 0.143877 0.969952
vt 0.138154 0.969521
vt 0.143687 0.971288
vn -0.221036 -0.115379 -0.968417
vn -0.222507 -0.011279 -0.974866
vn -0.000000 -0.011279 -0.999936
vn -0.000001 -0.115380 -0.993322
vn 0.430987 -0.115379 -0.894951
vn 0.433856 -0.011279 -0.900912
vn 0.623450 -0.011279 -0.781782
vn 0.619330 -0.115377 -0.776607
vn 0.619330 -0.115377 -0.776607
vn 0.623450 -0.011279 -0.781782
vn 0.781782 -0.011279 -0.623450
vn 0.776614 -0.115377 -0.619322
vn 0.776614 -0.115377 -0.619322
vn 0.781782 -0.011279 -0.623450
vn 0.900912 -0.011279 -0.433856
vn 0.894952 -0.115379 -0.430985
vn 0.894952 -0.115379 -0.430985
vn 0.900912 -0.011279 -0.433856
vn 0.974866 -0.011279 -0.222507
vn 0.968417 -0.115379 -0.221035
vn 0.968417 -0.115379 -0.221035
vn 0.974866 -0.011279 -0.222507
vn 0.999936 -0.011279 0.000000
vn 0.993321 -0.115379 0.000000
vn 0.993321 -0.115379 0.000000
vn 0.999936 -0.011279 0.000000
vn 0.974866 -0.011279 0.222507
vn 0.968417 -0.115379 0.221034
vn 0.968417 -0.115379 0.221034
vn 0.974866 -0.011279 0.222507
vn 0.900911 -0.011279 0.433857
vn 0.894952 -0.115379 0.430985
vn 0.894952 -0.115379 0.430985
vn 0.900911 -0.011279 0.433857
vn 0.781782 -0.011279 0.623451
vn 0.776610 -0.115379 0.619326
vn 0.776610 -0.115379 0.619326
vn 0.781782 -0.011279 0.623451
vn 0.623450 -0.011279 0.781782
vn 0.619325 -0.115380 0.776611
vn 0.619325 -0.115380 0.776611
vn 0.623450 -0.011279 0.781782
vn 0.433856 -0.011279 0.900912
vn 0.430984 -0.115380 0.894953
vn 0.430984 -0.115380 0.894953
vn 0.433856 -0.011279 0.900912
vn 0.222507 -0.011279 0.974866
vn 0.221035 -0.115379 0.968417
vn 0.221035 -0.115379 0.968417
vn 0.222507 -0.011279 0.974866
vn -0.000000 -0.011279 0.999936
vn 0.000000 -0.115380 0.993322
vn 0.000000 -0.115380 0.993322
vn -0.000000 -0.011279 0.999936
vn -0.222507 -0.011279 0.974866
vn -0.221034 -0.115380 0.968417
vn -0.221034 -0.115380 0.968417
vn -0.222507 -0.011279 0.974866
vn -0.433856 -0.011279 0.900912
vn -0.430987 -0.115379 0.894951
vn -0.430987 -0.115379 0.894951
vn -0.433856 -0.011279 0.900912
vn -0.623450 -0.011279 0.781782
vn -0.619325 -0.115379 0.776610
vn -0.619325 -0.115379 0.776610
vn -0.623450 -0.011279 0.781782
vn -0.781782 -0.011279 0.623450
vn -0.776609 -0.115380 0.619328
vn -0.776609 -0.115380 0.619328
vn -0.781782 -0.011279 0.623450
vn -0.900911 -0.011279 0.433856
vn -0.894952 -0.115379 0.430985
vn -0.894952 -0.115379 0.430985
vn -0.900911 -0.011279 0.433856
vn -0.974866 -0.011279 0.222507
vn -0.968417 -0.115379 0.221034
vn -0.968417 -0.115379 0.221034
vn -0.974866 -0.011279 0.222507
vn -0.999936 -0.011279 -0.000000
vn -0.993322 -0.115379 -0.000000
vn -0.993322 -0.115379 -0.000000
vn -0.999936 -0.011279 -0.000000
vn -0.974866 -0.011279 -0.222507
vn -0.968417 -0.115379 -0.221034
vn -0.968417 -0.115379 -0.221034
vn -0.974866 -0.011279 -0.222507
vn -0.900912 -0.011279 -0.433856
vn -0.894951 -0.115379 -0.430987
vn -0.894951 -0.115379 -0.430987
vn -0.900912 -0.011279 -0.433856
vn -0.781782 -0.011279 -0.623450
vn -0.776609 -0.115379 -0.619327
vn -0.776609 -0.115379 -0.619327
vn -0.781782 -0.011279 -0.623450
vn -0.623450 -0.011279 -0.781782
vn -0.619328 -0.115378 -0.776609
vn -0.619328 -0.115378 -0.776609
vn -0.623450 -0.011279 -0.781782
vn -0.433856 -0.011279 -0.900912
vn -0.430988 -0.115379 -0.894951
vn -0.430988 -0.115379 -0.894951
vn -0.433856 -0.011279 -0.900912
vn -0.222507 -0.011279 -0.974866
vn -0.221036 -0.115379 -0.968417
vn 0.221034 -0.115380 -0.968417
vn 0.222507 -0.011279 -0.974866
vn 0.433856 -0.011279 -0.900912
vn 0.430987 -0.115379 -0.894951
vn -0.000001 -0.115380 -0.993322
vn -0.000000 -0.011279 -0.999936
vn 0.222507 -0.011279 -0.974866
vn 0.221034 -0.115380 -0.968417
vn -0.000001 -0.115380 -0.993322
vn 0.221034 -0.115380 -0.968417
vn 0.204074 -0.398646 -0.894111
vn -0.000001 -0.398646 -0.917105
vn -0.000001 -0.398646 -0.917105
vn 0.204074 -0.398646 -0.894111
vn 0.156428 -0.711207 -0.685358
vn -0.000000 -0.711207 -0.702983
vn -0.000000 -0.711207 -0.702983
vn 0.156428 -0.711207 -0.685358
vn 0.023093 -0.994600 -0.101177
vn 0.000000 -0.994600 -0.103779
vn 0.221034 -0.115380 -0.968417
vn 0.430987 -0.115379 -0.894951
vn 0.397918 -0.398645 -0.826283
vn 0.204074 -0.398646 -0.894111
vn 0.204074 -0.398646 -0.894111
vn 0.397918 -0.398645 -0.826283
vn 0.305013 -0.711207 -0.633365
vn 0.156428 -0.711207 -0.685358
vn 0.023093 -0.994600 -0.101177
vn 0.156428 -0.711207 -0.685358
vn 0.305013 -0.711207 -0.633365
vn 0.045030 -0.994600 -0.093502
vn 0.430987 -0.115379 -0.894951
vn 0.619330 -0.115377 -0.776607
vn 0.571810 -0.398644 -0.717019
vn 0.397918 -0.398645 -0.826283
vn 0.397918 -0.398645 -0.826283
vn 0.571810 -0.398644 -0.717019
vn 0.438301 -0.711208 -0.549614
vn 0.305013 -0.711207 -0.633365
vn 0.045030 -0.994600 -0.093502
vn 0.305013 -0.711207 -0.633365
vn 0.438301 -0.711208 -0.549614
vn 0.064707 -0.994600 -0.081138
vn 0.619330 -0.115377 -0.776607
vn 0.776614 -0.115377 -0.619322
vn 0.717025 -0.398644 -0.571802
vn 0.571810 -0.398644 -0.717019
vn 0.571810 -0.398644 -0.717019
vn 0.717025 -0.398644 -0.571802
vn 0.549612 -0.711208 -0.438303
vn 0.438301 -0.711208 -0.549614
vn 0.064707 -0.994600 -0.081138
vn 0.438301 -0.711208 -0.549614
vn 0.549612 -0.711208 -0.438303
vn 0.081131 -0.994601 -0.064705
vn 0.776614 -0.115377 -0.619322
vn 0.894952 -0.115379 -0.430985
vn 0.826284 -0.398645 -0.397915
vn 0.717025 -0.398644 -0.571802
vn 0.717025 -0.398644 -0.571802
vn 0.826284 -0.398645 -0.397915
vn 0.633366 -0.711207 -0.305013
vn 0.549612 -0.711208 -0.438303
vn 0.081131 -0.994601 -0.064705
vn 0.549612 -0.711208 -0.438303
vn 0.633366 -0.711207 -0.305013
vn 0.093498 -0.994601 -0.045028
vn 0.894952 -0.115379 -0.430985
vn 0.968417 -0.115379 -0.221035
vn 0.894111 -0.398646 -0.204076
vn 0.826284 -0.398645 -0.397915
vn 0.826284 -0.398645 -0.397915
vn 0.894111 -0.398646 -0.204076
vn 0.685355 -0.711210 -0.156429
vn 0.633366 -0.711207 -0.305013
vn 0.093498 -0.994601 -0.045028
vn 0.633366 -0.711207 -0.305013
vn 0.685355 -0.711210 -0.156429
vn 0.101180 -0.994600 -0.023093
vn 0.968417 -0.115379 -0.221035
vn 0.993321 -0.115379 0.000000
vn 0.917105 -0.398645 0.000000
vn 0.894111 -0.398646 -0.204076
vn 0.894111 -0.398646 -0.204076
vn 0.917105 -0.398645 0.000000
vn 0.702985 -0.711205 -0.000000
vn 0.685355 -0.711210 -0.156429
vn 0.101180 -0.994600 -0.023093
vn 0.685355 -0.711210 -0.156429
vn 0.702985 -0.711205 -0.000000
vn 0.103777 -0.994601 0.000000
vn 0.993321 -0.115379 0.000000
vn 0.968417 -0.115379 0.221034
vn 0.894112 -0.398645 0.204074
vn 0.917105 -0.398645 0.000000
vn 0.917105 -0.398645 0.000000
vn 0.894112 -0.398645 0.204074
vn 0.685362 -0.711203 0.156428
vn 0.702985 -0.711205 -0.000000
vn 0.103777 -0.994601 0.000000
vn 0.702985 -0.711205 -0.000000
vn 0.685362 -0.711203 0.156428
vn 0.101180 -0.994600 0.023093
vn 0.968417 -0.115379 0.221034
vn 0.894952 -0.115379 0.430985
vn 0.826284 -0.398645 0.397916
vn 0.894112 -0.398645 0.204074
vn 0.894112 -0.398645 0.204074
vn 0.826284 -0.398645 0.397916
vn 0.633363 -0.711209 0.305013
vn 0.685362 -0.711203 0.156428
vn 0.101180 -0.994600 0.023093
vn 0.685362 -0.711203 0.156428
vn 0.633363 -0.711209 0.305013
vn 0.093513 -0.994599 0.045028
vn 0.894952 -0.115379 0.430985
vn 0.776610 -0.115379 0.619326
vn 0.717024 -0.398644 0.571804
vn 0.826284 -0.398645 0.397916
vn 0.826284 -0.398645 0.397916
vn 0.717024 -0.398644 0.571804
vn 0.549612 -0.711209 0.438303
vn 0.633363 -0.711209 0.305013
vn 0.093513 -0.994599 0.045028
vn 0.633363 -0.711209 0.305013
vn 0.549612 -0.711209 0.438303
vn 0.081145 -0.994600 0.064705
vn 0.776610 -0.115379 0.619326
vn 0.619325 -0.115380 0.776611
vn 0.571808 -0.398645 0.717021
vn 0.717024 -0.398644 0.571804
vn 0.717024 -0.398644 0.571804
vn 0.571808 -0.398645 0.717021
vn 0.438302 -0.711207 0.549614
vn 0.549612 -0.711209 0.438303
vn 0.081145 -0.994600 0.064705
vn 0.549612 -0.711209 0.438303
vn 0.438302 -0.711207 0.549614
vn 0.064705 -0.994600 0.081138
vn 0.619325 -0.115380 0.776611
vn 0.430984 -0.115380 0.894953
vn 0.397915 -0.398646 0.826284
vn 0.571808 -0.398645 0.717021
vn 0.571808 -0.398645 0.717021
vn 0.397915 -0.398646 0.826284
vn 0.305007 -0.711209 0.633366
vn 0.438302 -0.711207 0.549614
vn 0.064705 -0.994600 0.081138
vn 0.438302 -0.711207 0.549614
vn 0.305007 -0.711209 0.633366
vn 0.045028 -0.994600 0.093502
vn 0.430984 -0.115380 0.894953
vn 0.221035 -0.115379 0.968417
vn 0.204074 -0.398646 0.894111
vn 0.397915 -0.398646 0.826284
vn 0.397915 -0.398646 0.826284
vn 0.204074 -0.398646 0.894111
vn 0.156424 -0.711208 0.685358
vn 0.305007 -0.711209 0.633366
vn 0.045028 -0.994600 0.093502
vn 0.305007 -0.711209 0.633366
vn 0.156424 -0.711208 0.685358
vn 0.023093 -0.994600 0.101177
vn 0.221035 -0.115379 0.968417
vn 0.000000 -0.115380 0.993322
vn 0.000001 -0.398646 0.917105
vn 0.204074 -0.398646 0.894111
vn 0.204074 -0.398646 0.894111
vn 0.000001 -0.398646 0.917105
vn 0.000000 -0.711207 0.702983
vn 0.156424 -0.711208 0.685358
vn 0.023093 -0.994600 0.101177
vn 0.156424 -0.711208 0.685358
vn 0.000000 -0.711207 0.702983
vn 0.000000 -0.994600 0.103779
vn 0.000000 -0.115380 0.993322
vn -0.221034 -0.115380 0.968417
vn -0.204075 -0.398646 0.894111
vn 0.000001 -0.398646 0.917105
vn 0.000001 -0.398646 0.917105
vn -0.204075 -0.398646 0.894111
vn -0.156430 -0.711206 0.685358
vn 0.000000 -0.711207 0.702983
vn 0.000000 -0.994600 0.103779
vn 0.000000 -0.711207 0.702983
vn -0.156430 -0.711206 0.685358
vn -0.023093 -0.994600 0.101177
vn -0.221034 -0.115380 0.968417
vn -0.430987 -0.115379 0.894951
vn -0.397916 -0.398646 0.826283
vn -0.204075 -0.398646 0.894111
vn -0.204075 -0.398646 0.894111
vn -0.397916 -0.398646 0.826283
vn -0.305011 -0.711207 0.633366
vn -0.156430 -0.711206 0.685358
vn -0.023093 -0.994600 0.101177
vn -0.156430 -0.711206 0.685358
vn -0.305011 -0.711207 0.633366
vn -0.045030 -0.994600 0.093502
vn -0.430987 -0.115379 0.894951
vn -0.619325 -0.115379 0.776610
vn -0.571803 -0.398647 0.717023
vn -0.397916 -0.398646 0.826283
vn -0.397916 -0.398646 0.826283
vn -0.571803 -0.398647 0.717023
vn -0.438301 -0.711207 0.549615
vn -0.305011 -0.711207 0.633366
vn -0.045030 -0.994600 0.093502
vn -0.305011 -0.711207 0.633366
vn -0.438301 -0.711207 0.549615
vn -0.064702 -0.994601 0.081138
vn -0.619325 -0.115379 0.776610
vn -0.776609 -0.115380 0.619328
vn -0.717018 -0.398648 0.571809
vn -0.571803 -0.398647 0.717023
vn -0.571803 -0.398647 0.717023
vn -0.717018 -0.398648 0.571809
vn -0.549610 -0.711209 0.438304
vn -0.438301 -0.711207 0.549615
vn -0.064702 -0.994601 0.081138
vn -0.438301 -0.711207 0.549615
vn -0.549610 -0.711209 0.438304
vn -0.081136 -0.994601 0.064705
vn -0.776609 -0.115380 0.619328
vn -0.894952 -0.115379 0.430985
vn -0.826283 -0.398645 0.397916
vn -0.717018 -0.398648 0.571809
vn -0.717018 -0.398648 0.571809
vn -0.826283 -0.398645 0.397916
vn -0.633363 -0.711209 0.305014
vn -0.549610 -0.711209 0.438304
vn -0.081136 -0.994601 0.064705
vn -0.549610 -0.711209 0.438304
vn -0.633363 -0.711209 0.305014
vn -0.093503 -0.994600 0.045028
vn -0.894952 -0.115379 0.430985
vn -0.968417 -0.115379 0.221034
vn -0.894113 -0.398643 0.204074
vn -0.826283 -0.398645 0.397916
vn -0.826283 -0.398645 0.397916
vn -0.894113 -0.398643 0.204074
vn -0.685356 -0.711208 0.156428
vn -0.633363 -0.711209 0.305014
vn -0.093503 -0.994600 0.045028
vn -0.633363 -0.711209 0.305014
vn -0.685356 -0.711208 0.156428
vn -0.101175 -0.994601 0.023093
vn -0.968417 -0.115379 0.221034
vn -0.993322 -0.115379 -0.000000
vn -0.917105 -0.398645 0.000000
vn -0.894113 -0.398643 0.204074
vn -0.894113 -0.398643 0.204074
vn -0.917105 -0.398645 0.000000
vn -0.702983 -0.711207 0.000000
vn -0.685356 -0.711208 0.156428
vn -0.101175 -0.994601 0.023093
vn -0.685356 -0.711208 0.156428
vn -0.702983 -0.711207 0.000000
vn -0.103777 -0.994601 0.000000
vn -0.993322 -0.115379 -0.000000
vn -0.968417 -0.115379 -0.221034
vn -0.894112 -0.398645 -0.204074
vn -0.917105 -0.398645 0.000000
vn -0.917105 -0.398645 0.000000
vn -0.894112 -0.398645 -0.204074
vn -0.685362 -0.711203 -0.156428
vn -0.702983 -0.711207 0.000000
vn -0.103777 -0.994601 0.000000
vn -0.702983 -0.711207 0.000000
vn -0.685362 -0.711203 -0.156428
vn -0.101175 -0.994601 -0.023093
vn -0.968417 -0.115379 -0.221034
vn -0.894951 -0.115379 -0.430987
vn -0.826283 -0.398646 -0.397918
vn -0.894112 -0.398645 -0.204074
vn -0.894112 -0.398645 -0.204074
vn -0.826283 -0.398646 -0.397918
vn -0.633368 -0.711205 -0.305012
vn -0.685362 -0.711203 -0.156428
vn -0.101175 -0.994601 -0.023093
vn -0.685362 -0.711203 -0.156428
vn -0.633368 -0.711205 -0.305012
vn -0.093494 -0.994601 -0.045028
vn -0.894951 -0.115379 -0.430987
vn -0.776609 -0.115379 -0.619327
vn -0.717023 -0.398645 -0.571805
vn -0.826283 -0.398646 -0.397918
vn -0.826283 -0.398646 -0.397918
vn -0.717023 -0.398645 -0.571805
vn -0.549615 -0.711207 -0.438302
vn -0.633368 -0.711205 -0.305012
vn -0.093494 -0.994601 -0.045028
vn -0.633368 -0.711205 -0.305012
vn -0.549615 -0.711207 -0.438302
vn -0.081127 -0.994601 -0.064705
vn -0.776609 -0.115379 -0.619327
vn -0.619328 -0.115378 -0.776609
vn -0.571810 -0.398644 -0.717019
vn -0.717023 -0.398645 -0.571805
vn -0.717023 -0.398645 -0.571805
vn -0.571810 -0.398644 -0.717019
vn -0.438304 -0.711207 -0.549613
vn -0.549615 -0.711207 -0.438302
vn -0.081127 -0.994601 -0.064705
vn -0.549615 -0.711207 -0.438302
vn -0.438304 -0.711207 -0.549613
vn -0.064700 -0.994601 -0.081138
vn -0.619328 -0.115378 -0.776609
vn -0.430988 -0.115379 -0.894951
vn -0.397920 -0.398645 -0.826282
vn -0.571810 -0.398644 -0.717019
vn -0.571810 -0.398644 -0.717019
vn -0.397920 -0.398645 -0.826282
vn -0.305009 -0.711208 -0.633366
vn -0.438304 -0.711207 -0.549613
vn -0.064700 -0.994601 -0.081138
vn -0.438304 -0.711207 -0.549613
vn -0.305009 -0.711208 -0.633366
vn -0.045030 -0.994600 -0.093502
vn -0.430988 -0.115379 -0.894951
vn -0.221036 -0.115379 -0.968417
vn -0.204077 -0.398646 -0.894111
vn -0.397920 -0.398645 -0.826282
vn -0.397920 -0.398645 -0.826282
vn -0.204077 -0.398646 -0.894111
vn -0.156425 -0.711207 -0.685358
vn -0.305009 -0.711208 -0.633366
vn -0.045030 -0.994600 -0.093502
vn -0.305009 -0.711208 -0.633366
vn -0.156425 -0.711207 -0.685358
vn -0.023096 -0.994600 -0.101177
vn -0.221036 -0.115379 -0.968417
vn -0.000001 -0.115380 -0.993322
vn -0.000001 -0.398646 -0.917105
vn -0.204077 -0.398646 -0.894111
vn -0.204077 -0.398646 -0.894111
vn -0.000001 -0.398646 -0.917105
vn -0.000000 -0.711207 -0.702983
vn -0.156425 -0.711207 -0.685358
vn -0.023096 -0.994600 -0.101177
vn -0.156425 -0.711207 -0.685358
vn -0.000000 -0.711207 -0.702983
vn 0.000000 -0.994600 -0.103779
vn 0.045028 -0.994600 0.093502
vn 0.078570 -0.990879 0.109479
vn 0.081145 -0.994600 0.064705
vn 0.064705 -0.994600 0.081138
vn -0.023093 -0.994600 0.101177
vn -0.041973 -0.992266 0.116822
vn 0.000096 -0.992880 0.119123
vn 0.000000 -0.994600 0.103779
vn -0.052837 -0.994774 -0.087369
vn 0.000192 -0.995538 -0.094366
vn -0.000265 -0.998523 -0.054324
vn -0.065921 -0.996574 -0.049945
vn 0.101180 -0.994600 -0.023093
vn 0.100053 -0.994124 -0.041313
vn 0.091812 -0.992800 -0.076933
vn 0.093498 -0.994601 -0.045028
vn 0.000096 -0.992880 0.119123
vn 0.042426 -0.992290 0.116447
vn 0.023093 -0.994600 0.101177
vn 0.000000 -0.994600 0.103779
vn 0.000192 -0.995538 -0.094366
vn 0.053135 -0.994770 -0.087229
vn 0.065104 -0.996637 -0.049766
vn -0.000265 -0.998523 -0.054324
vn -0.045030 -0.994600 0.093502
vn -0.077932 -0.990952 0.109270
vn -0.041973 -0.992266 0.116822
vn -0.023093 -0.994600 0.101177
vn -0.100072 -0.994121 -0.041343
vn -0.090566 -0.992961 -0.076334
vn -0.052837 -0.994774 -0.087369
vn -0.065921 -0.996574 -0.049945
vn -0.099616 -0.994155 0.041624
vn -0.103247 -0.994656 -0.000040
vn -0.069207 -0.997602 -0.000034
vn -0.065867 -0.996577 0.049960
vn -0.000187 -0.998525 0.054300
vn -0.065867 -0.996577 0.049960
vn -0.069207 -0.997602 -0.000034
vn 0.000084 -1.000000 0.000152
vn 0.000084 -1.000000 0.000152
vn 0.069890 -0.997555 0.000305
vn 0.066012 -0.996598 0.049352
vn -0.000187 -0.998525 0.054300
vn 0.101180 -0.994600 0.023093
vn 0.102076 -0.993927 0.041108
vn 0.104865 -0.994486 0.001072
vn 0.103777 -0.994601 0.000000
vn 0.104865 -0.994486 0.001072
vn 0.100053 -0.994124 -0.041313
vn 0.101180 -0.994600 -0.023093
vn 0.103777 -0.994601 0.000000
vn -0.000265 -0.998523 -0.054324
vn 0.065104 -0.996637 -0.049766
vn 0.069890 -0.997555 0.000305
vn 0.000084 -1.000000 0.000152
vn -0.065921 -0.996574 -0.049945
vn -0.000265 -0.998523 -0.054324
vn 0.000084 -1.000000 0.000152
vn -0.069207 -0.997602 -0.000034
vn -0.103247 -0.994656 -0.000040
vn -0.100072 -0.994121 -0.041343
vn -0.065921 -0.996574 -0.049945
vn -0.069207 -0.997602 -0.000034
vn -0.077885 -0.990853 -0.110198
vn -0.042296 -0.992138 -0.117783
vn -0.052837 -0.994774 -0.087369
vn -0.090566 -0.992961 -0.076334
vn -0.042296 -0.992138 -0.117783
vn 0.000002 -0.992694 -0.120662
vn 0.000192 -0.995538 -0.094366
vn -0.052837 -0.994774 -0.087369
vn 0.000002 -0.992694 -0.120662
vn 0.042481 -0.992189 -0.117290
vn 0.053135 -0.994770 -0.087229
vn 0.000192 -0.995538 -0.094366
vn 0.093498 -0.994601 -0.045028
vn 0.091812 -0.992800 -0.076933
vn 0.080016 -0.990795 -0.109191
vn 0.081131 -0.994601 -0.064705
vn -0.090563 -0.992944 0.076558
vn -0.099616 -0.994155 0.041624
vn -0.065867 -0.996577 0.049960
vn -0.053647 -0.994760 0.087037
vn -0.000340 -0.995596 0.093753
vn -0.053647 -0.994760 0.087037
vn -0.065867 -0.996577 0.049960
vn -0.000187 -0.998525 0.054300
vn -0.000187 -0.998525 0.054300
vn 0.066012 -0.996598 0.049352
vn 0.053562 -0.994788 0.086760
vn -0.000340 -0.995596 0.093753
vn 0.093513 -0.994599 0.045028
vn 0.092235 -0.992812 0.076272
vn 0.102076 -0.993927 0.041108
vn 0.101180 -0.994600 0.023093
vn 0.023093 -0.994600 0.101177
vn 0.042426 -0.992290 0.116447
vn 0.078570 -0.990879 0.109479
vn 0.045028 -0.994600 0.093502
vn 0.102076 -0.993927 0.041108
vn 0.092235 -0.992812 0.076272
vn 0.053562 -0.994788 0.086760
vn 0.066012 -0.996598 0.049352
vn 0.104865 -0.994486 0.001072
vn 0.102076 -0.993927 0.041108
vn 0.066012 -0.996598 0.049352
vn 0.069890 -0.997555 0.000305
vn 0.069890 -0.997555 0.000305
vn 0.065104 -0.996637 -0.049766
vn 0.100053 -0.994124 -0.041313
vn 0.104865 -0.994486 0.001072
vn 0.091812 -0.992800 -0.076933
vn 0.100053 -0.994124 -0.041313
vn 0.065104 -0.996637 -0.049766
vn 0.053135 -0.994770 -0.087229
vn 0.042481 -0.992189 -0.117290
vn 0.080016 -0.990795 -0.109191
vn 0.091812 -0.992800 -0.076933
vn 0.053135 -0.994770 -0.087229
vn -0.081136 -0.994601 0.064705
vn -0.077932 -0.990952 0.109270
vn -0.045030 -0.994600 0.093502
vn -0.064702 -0.994601 0.081138
vn -0.101175 -0.994601 0.023093
vn -0.099616 -0.994155 0.041624
vn -0.090563 -0.992944 0.076558
vn -0.093503 -0.994600 0.045028
vn -0.103777 -0.994601 0.000000
vn -0.103247 -0.994656 -0.000040
vn -0.099616 -0.994155 0.041624
vn -0.101175 -0.994601 0.023093
vn -0.101175 -0.994601 -0.023093
vn -0.100072 -0.994121 -0.041343
vn -0.103247 -0.994656 -0.000040
vn -0.103777 -0.994601 0.000000
vn -0.093494 -0.994601 -0.045028
vn -0.090566 -0.992961 -0.076334
vn -0.100072 -0.994121 -0.041343
vn -0.101175 -0.994601 -0.023093
vn -0.081127 -0.994601 -0.064705
vn -0.077885 -0.990853 -0.110198
vn -0.090566 -0.992961 -0.076334
vn -0.093494 -0.994601 -0.045028
vn -0.093503 -0.994600 0.045028
vn -0.090563 -0.992944 0.076558
vn -0.077932 -0.990952 0.109270
vn -0.081136 -0.994601 0.064705
vn -0.041973 -0.992266 0.116822
vn -0.077932 -0.990952 0.109270
vn -0.090563 -0.992944 0.076558
vn -0.053647 -0.994760 0.087037
vn 0.000096 -0.992880 0.119123
vn -0.041973 -0.992266 0.116822
vn -0.053647 -0.994760 0.087037
vn -0.000340 -0.995596 0.093753
vn -0.000340 -0.995596 0.093753
vn 0.053562 -0.994788 0.086760
vn 0.042426 -0.992290 0.116447
vn 0.000096 -0.992880 0.119123
vn 0.078570 -0.990879 0.109479
vn 0.042426 -0.992290 0.116447
vn 0.053562 -0.994788 0.086760
vn 0.092235 -0.992812 0.076272
vn 0.081145 -0.994600 0.064705
vn 0.078570 -0.990879 0.109479
vn 0.092235 -0.992812 0.076272
vn 0.093513 -0.994599 0.045028
vn -0.045030 -0.994600 -0.093502
vn -0.077885 -0.990853 -0.110198
vn -0.081127 -0.994601 -0.064705
vn -0.064700 -0.994601 -0.081138
vn -0.023096 -0.994600 -0.101177
vn -0.042296 -0.992138 -0.117783
vn -0.077885 -0.990853 -0.110198
vn -0.045030 -0.994600 -0.093502
vn 0.000000 -0.994600 -0.103779
vn 0.000002 -0.992694 -0.120662
vn -0.042296 -0.992138 -0.117783
vn -0.023096 -0.994600 -0.101177
vn 0.000000 -0.994600 -0.103779
vn 0.023093 -0.994600 -0.101177
vn 0.042481 -0.992189 -0.117290
vn 0.000002 -0.992694 -0.120662
vn 0.045030 -0.994600 -0.093502
vn 0.080016 -0.990795 -0.109191
vn 0.042481 -0.992189 -0.117290
vn 0.023093 -0.994600 -0.101177
vn 0.081131 -0.994601 -0.064705
vn 0.080016 -0.990795 -0.109191
vn 0.045030 -0.994600 -0.093502
vn 0.064707 -0.994600 -0.081138
vn -0.000000 -0.000000 -1.000000
vn -0.000000 -0.000000 -1.000000
vn 0.222521 -0.000000 -0.974928
vn 0.222521 -0.000000 -0.974928
vn 0.623490 -0.000000 -0.781832
vn 0.623490 -0.000000 -0.781832
vn 0.781831 -0.000000 -0.623490
vn 0.781831 -0.000000 -0.623490
vn 0.781831 -0.000000 -0.623490
vn 0.781831 -0.000000 -0.623490
vn 0.900969 -0.000000 -0.433884
vn 0.900969 -0.000000 -0.433884
vn 0.900969 -0.000000 -0.433884
vn 0.900969 -0.000000 -0.433884
vn 0.974928 -0.000000 -0.222521
vn 0.974928 -0.000000 -0.222521
vn 0.974928 -0.000000 -0.222521
vn 0.974928 -0.000000 -0.222521
vn 1.000000 0.000000 0.000000
vn 1.000000 0.000000 0.000000
vn 1.000000 0.000000 0.000000
vn 1.000000 0.000000 0.000000
vn 0.974928 0.000000 0.222521
vn 0.974928 0.000000 0.222521
vn 0.974928 0.000000 0.222521
vn 0.974928 0.000000 0.222521
vn 0.900969 0.000000 0.433884
vn 0.900969 0.000000 0.433884
vn 0.900969 0.000000 0.433884
vn 0.900969 0.000000 0.433884
vn 0.781831 0.000000 0.623490
vn 0.781831 0.000000 0.623490
vn 0.781831 0.000000 0.623490
vn 0.781831 0.000000 0.623490
vn 0.623490 0.000000 0.781832
vn 0.623490 0.000000 0.781832
vn 0.623490 0.000000 0.781832
vn 0.623490 0.000000 0.781832
vn 0.433884 0.000000 0.900969
vn 0.433884 0.000000 0.900969
vn 0.433884 0.000000 0.900969
vn 0.433884 0.000000 0.900969
vn 0.222521 0.000000 0.974928
vn 0.222521 0.000000 0.974928
vn 0.222521 0.000000 0.974928
vn 0.222521 0.000000 0.974928
vn -0.000000 0.000000 1.000000
vn -0.000000 0.000000 1.000000
vn -0.000000 0.000000 1.000000
vn -0.000000 0.000000 1.000000
vn -0.222521 0.000000 0.974928
vn -0.222521 0.000000 0.974928
vn -0.222521 0.000000 0.974928
vn -0.222521 0.000000 0.974928
vn -0.433884 0.000000 0.900969
vn -0.433884 0.000000 0.900969
vn -0.433884 0.000000 0.900969
vn -0.433884 0.000000 0.900969
vn -0.623490 0.000000 0.781832
vn -0.623490 0.000000 0.781832
vn -0.623490 0.000000 0.781832
vn -0.623490 0.000000 0.781832
vn -0.781832 0.000000 0.623490
vn -0.781832 0.000000 0.623490
vn -0.781832 0.000000 0.623490
vn -0.781832 0.000000 0.623490
vn -0.900969 0.000000 0.433884
vn -0.900969 0.000000 0.433884
vn -0.900969 0.000000 0.433884
vn -0.900969 0.000000 0.433884
vn -0.974928 0.000000 0.222521
vn -0.974928 0.000000 0.222521
vn -0.974928 0.000000 0.222521
vn -0.974928 0.000000 0.222521
vn -1.000000 0.000000 0.000000
vn -1.000000 0.000000 0.000000
vn -1.000000 0.000000 0.000000
vn -1.000000 0.000000 0.000000
vn -0.974928 -0.000000 -0.222521
vn -0.974928 -0.000000 -0.222521
vn -0.974928 -0.000000 -0.222521
vn -0.974928 -0.000000 -0.222521
vn -0.900969 -0.000000 -0.433884
vn -0.900969 -0.000000 -0.433884
vn -0.900969 -0.000000 -0.433884
vn -0.900969 -0.000000 -0.433884
vn -0.781832 -0.000000 -0.623490
vn -0.781832 -0.000000 -0.623490
vn -0.781832 -0.000000 -0.623490
vn -0.781832 -0.000000 -0.623490
vn -0.623490 -0.000000 -0.781832
vn -0.623490 -0.000000 -0.781832
vn -0.623490 -0.000000 -0.781832
vn -0.623490 -0.000000 -0.781832
vn -0.433884 -0.000000 -0.900969
vn -0.433884 -0.000000 -0.900969
vn -0.433884 -0.000000 -0.900969
vn -0.433884 -0.000000 -0.900969
vn -0.222521 -0.000000 -0.974928
vn -0.222521 -0.000000 -0.974928
vn 0.222521 -0.000000 -0.974928
vn 0.222521 -0.000000 -0.974928
vn 0.433884 -0.000000 -0.900969
vn 0.433884 -0.000000 -0.900969
vn 0.433884 -0.000000 -0.900969
vn 0.433884 -0.000000 -0.900969
vn 0.623490 -0.000000 -0.781832
vn 0.623490 -0.000000 -0.781832
vn -0.222521 -0.000000 -0.974928
vn -0.222521 -0.000000 -0.974928
vn -0.000000 -0.000000 -1.000000
vn -0.000000 -0.000000 -1.000000
vn 0.172838 0.629839 -0.757252
vn -0.000000 0.629839 -0.776726
vn -0.000000 0.629839 -0.776725
vn 0.172838 0.629838 -0.757252
vn 0.337007 0.629840 -0.699806
vn 0.172838 0.629839 -0.757252
vn 0.172838 0.629838 -0.757252
vn 0.337006 0.629840 -0.699806
vn 0.484287 0.629837 -0.607266
vn 0.337007 0.629840 -0.699806
vn 0.337006 0.629840 -0.699806
vn 0.484288 0.629837 -0.607265
vn 0.607271 0.629838 -0.484279
vn 0.484287 0.629837 -0.607266
vn 0.484288 0.629837 -0.607265
vn 0.607270 0.629838 -0.484280
vn 0.699803 0.629841 -0.337011
vn 0.607271 0.629838 -0.484279
vn 0.607270 0.629838 -0.484280
vn 0.699803 0.629841 -0.337010
vn 0.757251 0.629840 -0.172837
vn 0.699803 0.629841 -0.337011
vn 0.699803 0.629841 -0.337010
vn 0.757251 0.629840 -0.172837
vn 0.776720 0.629846 0.000000
vn 0.757251 0.629840 -0.172837
vn 0.757251 0.629840 -0.172837
vn 0.776720 0.629846 0.000000
vn 0.757240 0.629851 0.172842
vn 0.776720 0.629846 0.000000
vn 0.776720 0.629846 0.000000
vn 0.757241 0.629851 0.172842
vn 0.699804 0.629841 0.337008
vn 0.757240 0.629851 0.172842
vn 0.757241 0.629851 0.172842
vn 0.699805 0.629841 0.337007
vn 0.607285 0.629829 0.484274
vn 0.699804 0.629841 0.337008
vn 0.699805 0.629841 0.337007
vn 0.607284 0.629829 0.484274
vn 0.484288 0.629836 0.607266
vn 0.607285 0.629829 0.484274
vn 0.607284 0.629829 0.484274
vn 0.484288 0.629836 0.607266
vn 0.337007 0.629841 0.699804
vn 0.484288 0.629836 0.607266
vn 0.484288 0.629836 0.607266
vn 0.337006 0.629841 0.699805
vn 0.172834 0.629842 0.757250
vn 0.337007 0.629841 0.699804
vn 0.337006 0.629841 0.699805
vn 0.172834 0.629842 0.757250
vn -0.000000 0.629842 0.776723
vn 0.172834 0.629842 0.757250
vn 0.172834 0.629842 0.757250
vn -0.000000 0.629842 0.776723
vn -0.172834 0.629842 0.757250
vn -0.000000 0.629842 0.776723
vn -0.000000 0.629842 0.776723
vn -0.172834 0.629842 0.757250
vn -0.337007 0.629841 0.699804
vn -0.172834 0.629842 0.757250
vn -0.172834 0.629842 0.757250
vn -0.337006 0.629841 0.699805
vn -0.484270 0.629844 0.607272
vn -0.337007 0.629841 0.699804
vn -0.337006 0.629841 0.699805
vn -0.484271 0.629844 0.607271
vn -0.607269 0.629839 0.484281
vn -0.484270 0.629844 0.607272
vn -0.484271 0.629844 0.607271
vn -0.607268 0.629839 0.484281
vn -0.699805 0.629841 0.337008
vn -0.607269 0.629839 0.484281
vn -0.607268 0.629839 0.484281
vn -0.699805 0.629841 0.337007
vn -0.757241 0.629851 0.172842
vn -0.699805 0.629841 0.337008
vn -0.699805 0.629841 0.337007
vn -0.757240 0.629851 0.172842
vn -0.776720 0.629846 -0.000000
vn -0.757241 0.629851 0.172842
vn -0.757240 0.629851 0.172842
vn -0.776720 0.629846 -0.000000
vn -0.757241 0.629851 -0.172842
vn -0.776720 0.629846 -0.000000
vn -0.776720 0.629846 -0.000000
vn -0.757241 0.629851 -0.172842
vn -0.699804 0.629842 -0.337008
vn -0.757241 0.629851 -0.172842
vn -0.757241 0.629851 -0.172842
vn -0.699804 0.629842 -0.337007
vn -0.607269 0.629839 -0.484280
vn -0.699804 0.629842 -0.337008
vn -0.699804 0.629842 -0.337007
vn -0.607268 0.629839 -0.484281
vn -0.484271 0.629843 -0.607272
vn -0.607269 0.629839 -0.484280
vn -0.607268 0.629839 -0.484281
vn -0.484271 0.629843 -0.607272
vn -0.337008 0.629839 -0.699807
vn -0.484271 0.629843 -0.607272
vn -0.484271 0.629843 -0.607272
vn -0.337007 0.629839 -0.699807
vn -0.172838 0.629838 -0.757253
vn -0.337008 0.629839 -0.699807
vn -0.337007 0.629839 -0.699807
vn -0.172838 0.629838 -0.757253
vn -0.000000 0.629839 -0.776726
vn -0.172838 0.629838 -0.757253
vn -0.172838 0.629838 -0.757253
vn -0.000000 0.629839 -0.776725
vn 0.000000 1.000000 -0.000000
vn -0.000003 1.000000 -0.000000
vn -0.000003 1.000000 -0.000000
vn 0.000000 1.000000 -0.000000
vn -0.000003 1.000000 -0.000000
vn 0.000000 1.000000 -0.000000
vn 0.000000 1.000000 -0.000000
vn -0.000003 1.000000 -0.000000
vn 0.000000 1.000000 -0.000000
vn 0.000000 1.000000 -0.000000
vn 0.000000 1.000000 -0.000000
vn 0.000000 1.000000 -0.000000
vn 0.000000 1.000000 -0.000000
vn 0.000021 1.000000 -0.000000
vn 0.000021 1.000000 -0.000000
vn 0.000000 1.000000 -0.000000
vn 0.000021 1.000000 -0.000000
vn -0.000000 1.000000 -0.000000
vn -0.000000 1.000000 -0.000000
vn 0.000021 1.000000 -0.000000
vn -0.000000 1.000000 -0.000000
vn -0.000021 1.000000 -0.000000
vn -0.000021 1.000000 -0.000000
vn -0.000000 1.000000 -0.000000
vn -0.000021 1.000000 -0.000000
vn 0.000000 1.000000 -0.000000
vn 0.000000 1.000000 -0.000000
vn -0.000021 1.000000 -0.000000
vn 0.000000 1.000000 -0.000000
vn 0.000000 1.000000 -0.000000
vn 0.000000 1.000000 -0.000000
vn 0.000000 1.000000 -0.000000
vn 0.000000 1.000000 -0.000000
vn 0.000021 1.000000 -0.000000
vn 0.000021 1.000000 -0.000000
vn 0.000000 1.000000 -0.000000
vn 0.000021 1.000000 -0.000000
vn 0.000021 1.000000 -0.000000
vn 0.000021 1.000000 -0.000000
vn 0.000021 1.000000 -0.000000
vn 0.000021 1.000000 -0.000000
vn 0.000000 1.000000 -0.000000
vn 0.000000 1.000000 -0.000000
vn 0.000021 1.000000 -0.000000
vn 0.000000 1.000000 -0.000000
vn 0.000000 1.000000 -0.000000
vn 0.000000 1.000000 -0.000000
vn 0.000000 1.000000 -0.000000
vn 0.000000 1.000000 -0.000000
vn 0.000000 1.000000 -0.000000
vn 0.000000 1.000000 -0.000000
vn 0.000000 1.000000 -0.000000
vn 0.000000 1.000000 -0.000000
vn 0.000000 1.000000 -0.000000
vn 0.000000 1.000000 -0.000000
vn 0.000000 1.000000 -0.000000
vn 0.000000 1.000000 -0.000000
vn 0.000000 1.000000 -0.000000
vn 0.000000 1.000000 -0.000000
vn 0.000000 1.000000 -0.000000
vn 0.000000 1.000000 -0.000000
vn 0.000000 1.000000 -0.000000
vn 0.000000 1.000000 -0.000000
vn 0.000000 1.000000 -0.000000
vn 0.000000 1.000000 -0.000000
vn 0.000000 1.000000 -0.000000
vn 0.000000 1.000000 -0.000000
vn 0.000000 1.000000 -0.000000
vn 0.000000 1.000000 -0.000000
vn 0.000000 1.000000 -0.000000
vn 0.000000 1.000000 -0.000000
vn 0.000000 1.000000 -0.000000
vn 0.000000 1.000000 -0.000000
vn 0.000000 1.000000 -0.000000
vn 0.000000 1.000000 -0.000000
vn 0.000000 1.000000 -0.000000
vn 0.000000 1.000000 -0.000000
vn 0.000000 1.000000 -0.000000
vn 0.000000 1.000000 -0.000000
vn 0.000000 1.000000 -0.000000
vn 0.000000 1.000000 -0.000000
vn 0.000000 1.000000 -0.000000
vn 0.000000 1.000000 -0.000000
vn 0.000000 1.000000 -0.000000
vn 0.000000 1.000000 -0.000000
vn 0.000000 1.000000 -0.000000
vn 0.000000 1.000000 -0.000000
vn 0.000000 1.000000 -0.000000
vn 0.000000 1.000000 -0.000000
vn -0.000021 1.000000 -0.000000
vn -0.000021 1.000000 -0.000000
vn 0.000000 1.000000 -0.000000
vn -0.000021 1.000000 -0.000000
vn -0.000021 1.000000 -0.000000
vn -0.000021 1.000000 -0.000000
vn -0.000021 1.000000 -0.000000
vn -0.000021 1.000000 -0.000000
vn 0.000000 1.000000 -0.000000
vn 0.000000 1.000000 -0.000000
vn -0.000021 1.000000 -0.000000
vn 0.000000 1.000000 -0.000000
vn 0.000000 1.000000 -0.000000
vn 0.000000 1.000000 -0.000000
vn 0.000000 1.000000 -0.000000
vn 0.000000 1.000000 -0.000000
vn 0.000003 1.000000 -0.000000
vn 0.000003 1.000000 -0.000000
vn 0.000000 1.000000 -0.000000
vn 0.000003 1.000000 -0.000000
vn 0.000000 1.000000 -0.000000
vn 0.000000 1.000000 -0.000000
vn 0.000003 1.000000 -0.000000
vn -0.000000 -0.629830 -0.776733
vn 0.172846 -0.629830 -0.757257
vn 0.172846 -0.629830 -0.757257
vn -0.000000 -0.629830 -0.776733
vn 0.172846 -0.629830 -0.757257
vn 0.337006 -0.629832 -0.699814
vn 0.337006 -0.629832 -0.699814
vn 0.172846 -0.629830 -0.757257
vn 0.337006 -0.629832 -0.699814
vn 0.484274 -0.629834 -0.607280
vn 0.484273 -0.629834 -0.607280
vn 0.337006 -0.629832 -0.699814
vn 0.484274 -0.629834 -0.607280
vn 0.607269 -0.629832 -0.484290
vn 0.607270 -0.629832 -0.484289
vn 0.484273 -0.629834 -0.607280
vn 0.607269 -0.629832 -0.484290
vn 0.699809 -0.629833 -0.337014
vn 0.699809 -0.629833 -0.337015
vn 0.607270 -0.629832 -0.484289
vn 0.699809 -0.629833 -0.337014
vn 0.757265 -0.629823 -0.172839
vn 0.757265 -0.629823 -0.172839
vn 0.699809 -0.629833 -0.337015
vn 0.757265 -0.629823 -0.172839
vn 0.776739 -0.629822 0.000002
vn 0.776739 -0.629822 0.000002
vn 0.757265 -0.629823 -0.172839
vn 0.776739 -0.629822 0.000002
vn 0.757255 -0.629834 0.172840
vn 0.757255 -0.629834 0.172840
vn 0.776739 -0.629822 0.000002
vn 0.757255 -0.629834 0.172840
vn 0.699808 -0.629834 0.337014
vn 0.699808 -0.629834 0.337014
vn 0.757255 -0.629834 0.172840
vn 0.699808 -0.629834 0.337014
vn 0.607269 -0.629833 0.484288
vn 0.607269 -0.629833 0.484289
vn 0.699808 -0.629834 0.337014
vn 0.607269 -0.629833 0.484288
vn 0.484274 -0.629833 0.607280
vn 0.484274 -0.629833 0.607280
vn 0.607269 -0.629833 0.484289
vn 0.484274 -0.629833 0.607280
vn 0.337006 -0.629831 0.699814
vn 0.337006 -0.629831 0.699814
vn 0.484274 -0.629833 0.607280
vn 0.337006 -0.629831 0.699814
vn 0.172846 -0.629830 0.757257
vn 0.172846 -0.629830 0.757257
vn 0.337006 -0.629831 0.699814
vn 0.172846 -0.629830 0.757257
vn 0.000000 -0.629832 0.776731
vn 0.000000 -0.629832 0.776731
vn 0.172846 -0.629830 0.757257
vn 0.000000 -0.629832 0.776731
vn -0.172846 -0.629831 0.757256
vn -0.172846 -0.629831 0.757256
vn 0.000000 -0.629832 0.776731
vn -0.172846 -0.629831 0.757256
vn -0.337006 -0.629831 0.699814
vn -0.337006 -0.629831 0.699814
vn -0.172846 -0.629831 0.757256
vn -0.337006 -0.629831 0.699814
vn -0.484291 -0.629826 0.607273
vn -0.484291 -0.629826 0.607274
vn -0.337006 -0.629831 0.699814
vn -0.484291 -0.629826 0.607273
vn -0.607284 -0.629824 0.484280
vn -0.607284 -0.629824 0.484280
vn -0.484291 -0.629826 0.607274
vn -0.607284 -0.629824 0.484280
vn -0.699808 -0.629834 0.337014
vn -0.699808 -0.629834 0.337014
vn -0.607284 -0.629824 0.484280
vn -0.699808 -0.629834 0.337014
vn -0.757265 -0.629823 0.172839
vn -0.757265 -0.629823 0.172839
vn -0.699808 -0.629834 0.337014
vn -0.757265 -0.629823 0.172839
vn -0.776749 -0.629810 0.000000
vn -0.776749 -0.629810 -0.000000
vn -0.757265 -0.629823 0.172839
vn -0.776749 -0.629810 0.000000
vn -0.757265 -0.629823 -0.172839
vn -0.757265 -0.629823 -0.172839
vn -0.776749 -0.629810 -0.000000
vn -0.757265 -0.629823 -0.172839
vn -0.699809 -0.629833 -0.337014
vn -0.699808 -0.629833 -0.337014
vn -0.757265 -0.629823 -0.172839
vn -0.699809 -0.629833 -0.337014
vn -0.607285 -0.629823 -0.484281
vn -0.607285 -0.629823 -0.484280
vn -0.699808 -0.629833 -0.337014
vn -0.607285 -0.629823 -0.484281
vn -0.484291 -0.629827 -0.607273
vn -0.484290 -0.629827 -0.607273
vn -0.607285 -0.629823 -0.484280
vn -0.484291 -0.629827 -0.607273
vn -0.337005 -0.629832 -0.699814
vn -0.337006 -0.629832 -0.699814
vn -0.484290 -0.629827 -0.607273
vn -0.337005 -0.629832 -0.699814
vn -0.172846 -0.629829 -0.757258
vn -0.172846 -0.629829 -0.757258
vn -0.337006 -0.629832 -0.699814
vn -0.172846 -0.629829 -0.757258
vn -0.000000 -0.629830 -0.776733
vn -0.000000 -0.629830 -0.776733
vn -0.172846 -0.629829 -0.757258
vn -0.000039 -1.000000 0.000000
vn 0.000039 -1.000000 0.000000
vn 0.000039 -1.000000 0.000000
vn -0.000039 -1.000000 0.000000
vn 0.000019 -1.000000 0.000000
vn 0.000000 -1.000000 0.000000
vn 0.000000 -1.000000 0.000000
vn 0.000019 -1.000000 0.000000
vn 0.000000 -1.000000 0.000000
vn 0.000039 -1.000000 0.000000
vn 0.000039 -1.000000 0.000000
vn 0.000000 -1.000000 0.000000
vn 0.000000 -1.000000 0.000000
vn -0.000039 -1.000000 0.000000
vn -0.000039 -1.000000 0.000000
vn -0.000000 -1.000000 0.000000
vn 0.000000 -1.000000 0.000000
vn 0.000000 -1.000000 0.000000
vn 0.000000 -1.000000 0.000000
vn 0.000000 -1.000000 0.000000
vn 0.000039 -1.000000 0.000000
vn 0.000000 -1.000000 0.000000
vn -0.000000 -1.000000 0.000000
vn 0.000039 -1.000000 0.000000
vn 0.000019 -1.000000 0.000000
vn 0.000000 -1.000000 0.000000
vn 0.000000 -1.000000 0.000000
vn 0.000019 -1.000000 0.000000
vn -0.000019 -1.000000 0.000000
vn 0.000039 -1.000000 0.000000
vn 0.000039 -1.000000 0.000000
vn -0.000019 -1.000000 0.000000
vn 0.000019 -1.000000 0.000000
vn 0.000019 -1.000000 0.000000
vn 0.000019 -1.000000 0.000000
vn 0.000019 -1.000000 0.000000
vn -0.000019 -1.000000 0.000000
vn -0.000019 -1.000000 0.000000
vn -0.000019 -1.000000 0.000000
vn -0.000019 -1.000000 0.000000
vn 0.000000 -1.000000 0.000000
vn 0.000019 -1.000000 0.000000
vn 0.000019 -1.000000 0.000000
vn 0.000000 -1.000000 0.000000
vn -0.000019 -1.000000 0.000000
vn 0.000000 -1.000000 0.000000
vn 0.000000 -1.000000 0.000000
vn -0.000019 -1.000000 0.000000
vn 0.000019 -1.000000 0.000000
vn 0.000019 -1.000000 0.000000
vn 0.000019 -1.000000 0.000000
vn 0.000019 -1.000000 0.000000
vn 0.000019 -1.000000 0.000000
vn -0.000019 -1.000000 0.000000
vn -0.000019 -1.000000 0.000000
vn 0.000019 -1.000000 0.000000
vn 0.000000 -1.000000 0.000000
vn 0.000019 -1.000000 0.000000
vn 0.000019 -1.000000 0.000000
vn 0.000000 -1.000000 0.000000
vn 0.000039 -1.000000 0.000000
vn 0.000019 -1.000000 0.000000
vn 0.000019 -1.000000 0.000000
vn 0.000039 -1.000000 0.000000
vn 0.000039 -1.000000 0.000000
vn 0.000000 -1.000000 0.000000
vn 0.000000 -1.000000 0.000000
vn 0.000039 -1.000000 0.000000
vn 0.000000 -1.000000 0.000000
vn 0.000039 -1.000000 0.000000
vn 0.000039 -1.000000 0.000000
vn 0.000000 -1.000000 0.000000
vn 0.000039 -1.000000 0.000000
vn 0.000039 -1.000000 0.000000
vn 0.000039 -1.000000 0.000000
vn 0.000039 -1.000000 0.000000
vn -0.000039 -1.000000 0.000000
vn 0.000000 -1.000000 0.000000
vn 0.000000 -1.000000 0.000000
vn -0.000039 -1.000000 0.000000
vn -0.000039 -1.000000 0.000000
vn 0.000039 -1.000000 0.000000
vn 0.000039 -1.000000 0.000000
vn -0.000039 -1.000000 0.000000
vn 0.000000 -1.000000 0.000000
vn -0.000039 -1.000000 0.000000
vn -0.000039 -1.000000 0.000000
vn -0.000000 -1.000000 0.000000
vn -0.000039 -1.000000 0.000000
vn -0.000039 -1.000000 0.000000
vn -0.000039 -1.000000 0.000000
vn -0.000039 -1.000000 0.000000
vn 0.000077 -1.000000 0.000000
vn 0.000000 -1.000000 0.000000
vn -0.000000 -1.000000 0.000000
vn 0.000077 -1.000000 0.000000
vn 0.000039 -1.000000 0.000000
vn -0.000039 -1.000000 0.000000
vn -0.000039 -1.000000 0.000000
vn 0.000039 -1.000000 0.000000
vn 0.000039 -1.000000 0.000000
vn 0.000077 -1.000000 0.000000
vn 0.000077 -1.000000 0.000000
vn 0.000039 -1.000000 0.000000
vn 0.000039 -1.000000 0.000000
vn 0.000039 -1.000000 0.000000
vn 0.000039 -1.000000 0.000000
vn 0.000039 -1.000000 0.000000
vn 0.000000 -1.000000 0.000000
vn -0.000019 -1.000000 0.000000
vn -0.000019 -1.000000 0.000000
vn 0.000000 -1.000000 0.000000
vn 0.951056 -0.000000 0.309017
vn 0.947272 0.089124 0.307787
vn 0.947272 0.089124 0.307787
vn 0.951056 -0.000000 0.309017
vn 0.587785 -0.000000 0.809017
vn 0.585446 0.089124 0.805797
vn 0.585446 0.089124 0.805797
vn 0.587785 -0.000000 0.809017
vn -0.000000 0.000000 1.000000
vn 0.000001 0.089124 0.996020
vn 0.000001 0.089124 0.996020
vn -0.000000 0.000000 1.000000
vn -0.587785 0.000000 0.809017
vn -0.585446 0.089125 0.805798
vn -0.585446 0.089125 0.805798
vn -0.587785 0.000000 0.809017
vn -0.951057 0.000000 0.309017
vn -0.947272 0.089125 0.307787
vn -0.947272 0.089125 0.307787
vn -0.951057 0.000000 0.309017
vn -0.951057 0.000000 -0.309017
vn -0.947272 0.089125 -0.307787
vn -0.947272 0.089125 -0.307787
vn -0.951057 0.000000 -0.309017
vn -0.587785 0.000000 -0.809017
vn -0.585446 0.089125 -0.805798
vn -0.585446 0.089125 -0.805798
vn -0.587785 0.000000 -0.809017
vn 0.000000 -0.000000 -1.000000
vn 0.000000 0.089125 -0.996020
vn 0.000000 0.089125 -0.996020
vn 0.000000 -0.000000 -1.000000
vn 0.000000 0.089125 -0.996020
vn 0.000000 0.089125 -0.996020
vn 0.000000 0.180960 -0.983491
vn 0.000000 0.180960 -0.983491
vn 0.587785 -0.000000 -0.809017
vn 0.585446 0.089124 -0.805798
vn 0.585446 0.089124 -0.805798
vn 0.587785 -0.000000 -0.809017
vn 0.951057 -0.000000 -0.309017
vn 0.947272 0.089124 -0.307788
vn 0.947272 0.089124 -0.307788
vn 0.951057 -0.000000 -0.309017
vn 0.501813 0.784372 0.364615
vn 0.620279 0.784381 0.000010
vn 0.620279 0.784381 0.000013
vn 0.501812 0.784372 0.364617
vn -0.585446 0.089125 -0.805798
vn -0.585446 0.089125 -0.805798
vn -0.578080 0.180960 -0.795661
vn -0.578080 0.180960 -0.795661
vn -0.947272 0.089125 -0.307787
vn -0.947272 0.089125 -0.307787
vn -0.935355 0.180960 -0.303915
vn -0.935355 0.180960 -0.303915
vn -0.947272 0.089125 0.307787
vn -0.947272 0.089125 0.307787
vn -0.935355 0.180959 0.303915
vn -0.935355 0.180959 0.303915
vn -0.585446 0.089125 0.805798
vn -0.585446 0.089125 0.805798
vn -0.578081 0.180959 0.795661
vn -0.578081 0.180959 0.795661
vn 0.947272 0.089124 0.307787
vn 0.947272 0.089124 0.307787
vn 0.935355 0.180959 0.303915
vn 0.935355 0.180959 0.303915
vn 0.000001 0.089124 0.996020
vn 0.000001 0.089124 0.996020
vn 0.000001 0.180959 0.983491
vn 0.000001 0.180959 0.983491
vn 0.585446 0.089124 0.805797
vn 0.585446 0.089124 0.805797
vn 0.578081 0.180959 0.795661
vn 0.578081 0.180959 0.795661
vn 0.947272 0.089124 -0.307788
vn 0.947272 0.089124 -0.307788
vn 0.935355 0.180959 -0.303916
vn 0.935355 0.180959 -0.303916
vn 0.585446 0.089124 -0.805798
vn 0.585446 0.089124 -0.805798
vn 0.578080 0.180959 -0.795661
vn 0.578080 0.180959 -0.795661
vn -0.000026 1.000000 -0.000000
vn 0.000002 1.000000 0.000007
vn -0.000026 1.000000 -0.000000
vn -0.000026 1.000000 -0.000000
vn 0.191647 0.784364 -0.589954
vn -0.191647 0.784364 -0.589954
vn -0.191648 0.784363 -0.589953
vn 0.191648 0.784364 -0.589953
vn -0.620299 0.784365 -0.000009
vn -0.501878 0.784334 0.364607
vn -0.501877 0.784334 0.364608
vn -0.620299 0.784365 -0.000006
vn 0.191709 0.784345 0.589958
vn 0.501813 0.784372 0.364615
vn 0.501812 0.784372 0.364617
vn 0.191708 0.784345 0.589958
vn 0.501821 0.784365 -0.364620
vn 0.191647 0.784364 -0.589954
vn 0.191648 0.784364 -0.589953
vn 0.501822 0.784365 -0.364618
vn -0.501777 0.784390 -0.364625
vn -0.620299 0.784365 -0.000009
vn -0.620299 0.784365 -0.000006
vn -0.501779 0.784390 -0.364623
vn -0.191709 0.784345 0.589958
vn 0.191709 0.784345 0.589958
vn 0.191708 0.784345 0.589958
vn -0.191708 0.784345 0.589958
vn 0.620279 0.784381 0.000010
vn 0.501821 0.784365 -0.364620
vn 0.501822 0.784365 -0.364618
vn 0.620279 0.784381 0.000013
vn -0.191647 0.784364 -0.589954
vn -0.501777 0.784390 -0.364625
vn -0.501779 0.784390 -0.364623
vn -0.191648 0.784363 -0.589953
vn -0.501878 0.784334 0.364607
vn -0.191709 0.784345 0.589958
vn -0.191708 0.784345 0.589958
vn -0.501877 0.784334 0.364608
vn -0.000026 1.000000 -0.000000
vn 0.000002 1.000000 0.000007
vn -0.000026 1.000000 -0.000000
vn -0.000026 1.000000 -0.000000
vn -0.000026 1.000000 -0.000000
vn 0.000002 1.000000 0.000007
vn -0.000026 1.000000 -0.000000
vn -0.000026 1.000000 -0.000000
vn -0.000026 1.000000 -0.000000
vn -0.000026 1.000000 -0.000000
vn 0.000002 1.000000 0.000007
vn -0.000026 1.000000 -0.000000
vn -0.000026 1.000000 -0.000000
vn 0.000002 1.000000 0.000007
vn -0.000026 1.000000 -0.000000
vn -0.000026 1.000000 -0.000000
s off
g pen group
usemtl penSG
f 138/1/1 28/2/2 1/3/3 30/4/4
f 38/5/5 3/6/6 4/7/7 42/200/8
f 42/8/9 4/201/10 5/9/11 46/10/12
f 46/10/13 5/9/14 6/11/15 50/12/16
f 50/12/17 6/11/18 7/13/19 54/14/20
f 54/14/21 7/13/22 8/15/23 58/16/24
f 58/16/25 8/15/26 9/17/27 62/18/28
f 62/18/29 9/17/30 10/19/31 66/20/32
f 66/20/33 10/19/34 11/21/35 70/22/36
f 70/22/37 11/21/38 12/23/39 74/24/40
f 74/24/41 12/23/42 13/25/43 78/26/44
f 78/26/45 13/25/46 14/27/47 82/28/48
f 82/28/49 14/27/50 15/29/51 86/30/52
f 86/30/53 15/29/54 16/31/55 90/32/56
f 90/32/57 16/31/58 17/33/59 94/34/60
f 94/34/61 17/33/62 18/35/63 98/36/64
f 98/36/65 18/35/66 19/37/67 102/38/68
f 102/38/69 19/37/70 20/39/71 106/40/72
f 106/40/73 20/39/74 21/41/75 110/42/76
f 110/42/77 21/41/78 22/43/79 114/44/80
f 114/44/81 22/43/82 23/45/83 118/46/84
f 118/46/85 23/45/86 24/47/87 122/48/88
f 122/48/89 24/47/90 25/49/91 126/50/92
f 126/50/93 25/49/94 26/51/95 130/52/96
f 130/52/97 26/51/98 27/53/99 134/54/100
f 134/54/101 27/53/102 28/2/103 138/1/104
f 34/55/105 2/56/106 3/6/107 38/5/108
f 30/4/109 1/3/110 2/56/111 34/55/112
f 30/4/113 34/55/114 36/57/115 32/58/116
f 32/58/117 36/57/118 35/59/119 31/60/120
f 31/60/121 35/59/122 33/196/123 29/176/124
f 34/55/125 38/5/126 40/63/127 36/57/128
f 36/57/129 40/63/130 39/64/131 35/59/132
f 33/196/133 35/59/134 39/64/135 37/195/136
f 38/5/137 42/200/138 44/199/139 40/63/140
f 40/63/141 44/199/142 43/197/143 39/64/144
f 37/195/145 39/64/146 43/197/147 41/198/148
f 42/8/149 46/10/150 48/69/151 44/66/152
f 44/66/153 48/69/154 47/70/155 43/67/156
f 41/68/157 43/67/158 47/70/159 45/193/160
f 46/10/161 50/12/162 52/72/163 48/69/164
f 48/69/165 52/72/166 51/73/167 47/70/168
f 45/193/169 47/70/170 51/73/171 49/192/172
f 50/12/173 54/14/174 56/75/175 52/72/176
f 52/72/177 56/75/178 55/76/179 51/73/180
f 49/192/181 51/73/182 55/76/183 53/191/184
f 54/14/185 58/16/186 60/78/187 56/75/188
f 56/75/189 60/78/190 59/79/191 55/76/192
f 53/191/193 55/76/194 59/79/195 57/190/196
f 58/16/197 62/18/198 64/81/199 60/78/200
f 60/78/201 64/81/202 63/82/203 59/79/204
f 57/190/205 59/79/206 63/82/207 61/189/208
f 62/18/209 66/20/210 68/84/211 64/81/212
f 64/81/213 68/84/214 67/85/215 63/82/216
f 61/189/217 63/82/218 67/85/219 65/188/220
f 66/20/221 70/22/222 72/87/223 68/84/224
f 68/84/225 72/87/226 71/88/227 67/85/228
f 65/188/229 67/85/230 71/88/231 69/187/232
f 70/22/233 74/24/234 76/90/235 72/87/236
f 72/87/237 76/90/238 75/91/239 71/88/240
f 69/187/241 71/88/242 75/91/243 73/92/244
f 74/24/245 78/26/246 80/93/247 76/90/248
f 76/90/249 80/93/250 79/94/251 75/91/252
f 73/92/253 75/91/254 79/94/255 77/95/256
f 78/26/257 82/28/258 84/96/259 80/93/260
f 80/93/261 84/96/262 83/97/263 79/94/264
f 77/95/265 79/94/266 83/97/267 81/98/268
f 82/28/269 86/30/270 88/99/271 84/96/272
f 84/96/273 88/99/274 87/100/275 83/97/276
f 81/98/277 83/97/278 87/100/279 85/101/280
f 86/30/281 90/32/282 92/102/283 88/99/284
f 88/99/285 92/102/286 91/103/287 87/100/288
f 85/101/289 87/100/290 91/103/291 89/104/292
f 90/32/293 94/34/294 96/105/295 92/102/296
f 92/102/297 96/105/298 95/106/299 91/103/300
f 89/104/301 91/103/302 95/106/303 93/107/304
f 94/34/305 98/36/306 100/108/307 96/105/308
f 96/105/309 100/108/310 99/109/311 95/106/312
f 93/107/313 95/106/314 99/109/315 97/110/316
f 98/36/317 102/38/318 104/111/319 100/108/320
f 100/108/321 104/111/322 103/112/323 99/109/324
f 97/110/325 99/109/326 103/112/327 101/186/328
f 102/38/329 106/40/330 108/114/331 104/111/332
f 104/111/333 108/114/334 107/115/335 103/112/336
f 101/186/337 103/112/338 107/115/339 105/185/340
f 106/40/341 110/42/342 112/117/343 108/114/344
f 108/114/345 112/117/346 111/118/347 107/115/348
f 105/185/349 107/115/350 111/118/351 109/184/352
f 110/42/353 114/44/354 116/120/355 112/117/356
f 112/117/357 116/120/358 115/121/359 111/118/360
f 109/184/361 111/118/362 115/121/363 113/183/364
f 114/44/365 118/46/366 120/123/367 116/120/368
f 116/120/369 120/123/370 119/124/371 115/121/372
f 113/183/373 115/121/374 119/124/375 117/182/376
f 118/46/377 122/48/378 124/126/379 120/123/380
f 120/123/381 124/126/382 123/127/383 119/124/384
f 117/182/385 119/124/386 123/127/387 121/181/388
f 122/48/389 126/50/390 128/129/391 124/126/392
f 124/126/393 128/129/394 127/130/395 123/127/396
f 121/181/397 123/127/398 127/130/399 125/180/400
f 126/50/401 130/52/402 132/132/403 128/129/404
f 128/129/405 132/132/406 131/133/407 127/130/408
f 125/180/409 127/130/410 131/133/411 129/134/412
f 130/52/413 134/54/414 136/135/415 132/132/416
f 132/132/417 136/135/418 135/136/419 131/133/420
f 129/134/421 131/133/422 135/136/423 133/178/424
f 134/54/425 138/1/426 140/138/427 136/135/428
f 136/135/429 140/138/430 139/139/431 135/136/432
f 133/178/433 135/136/434 139/139/435 137/177/436
f 138/1/437 30/4/438 32/58/439 140/138/440
f 140/138/441 32/58/442 31/60/443 139/139/444
f 137/177/445 139/139/446 31/60/447 29/176/448
f 77/95/449 170/141/450 69/89/451 73/92/452
f 89/104/453 167/142/454 168/143/455 85/101/456
f 150/144/457 151/145/458 148/146/459 149/147/460
f 53/77/461 159/148/462 160/149/463 49/74/464
f 168/143/465 169/150/466 81/98/467 85/101/468
f 151/145/469 152/151/470 147/152/471 148/146/472
f 93/107/473 166/153/474 167/142/475 89/104/476
f 164/154/477 165/155/478 150/144/479 149/147/480
f 162/156/481 163/157/482 143/158/483 144/159/484
f 145/160/485 144/159/486 143/158/487 141/161/488
f 141/161/489 142/162/490 146/163/491 145/160/492
f 61/83/493 157/164/494 158/165/495 57/80/496
f 158/165/497 159/148/498 53/77/499 57/80/500
f 148/146/501 147/152/502 142/162/503 141/161/504
f 149/147/505 148/146/506 141/161/507 143/158/508
f 163/157/509 164/154/510 149/147/511 143/158/512
f 171/166/513 172/167/514 150/144/515 165/155/516
f 172/167/517 173/168/518 151/145/519 150/144/520
f 173/168/521 174/169/522 152/151/523 151/145/524
f 49/74/525 160/149/526 175/170/527 45/71/528
f 161/171/529 162/156/530 144/159/531 153/172/532
f 154/173/533 153/172/534 144/159/535 145/160/536
f 145/160/537 146/163/538 155/174/539 154/173/540
f 65/86/541 156/175/542 157/164/543 61/83/544
f 81/98/545 169/150/546 170/141/547 77/95/548
f 157/164/549 156/175/550 155/174/551 146/163/552
f 158/165/553 157/164/554 146/163/555 142/162/556
f 142/162/557 147/152/558 159/148/559 158/165/560
f 160/149/561 159/148/562 147/152/563 152/151/564
f 174/169/565 175/170/566 160/149/567 152/151/568
f 101/113/569 166/153/570 93/107/571 97/110/572
f 109/119/573 162/156/574 161/171/575 105/116/576
f 113/122/577 163/157/578 162/156/579 109/119/580
f 117/125/581 164/154/582 163/157/583 113/122/584
f 121/128/585 165/155/586 164/154/587 117/125/588
f 125/131/589 171/166/590 165/155/591 121/128/592
f 105/116/593 161/171/594 166/153/595 101/113/596
f 167/142/597 166/153/598 161/171/599 153/172/600
f 168/143/601 167/142/602 153/172/603 154/173/604
f 154/173/605 155/174/606 169/150/607 168/143/608
f 170/141/609 169/150/610 155/174/611 156/175/612
f 69/89/613 170/141/614 156/175/615 65/86/616
f 133/137/617 171/166/618 125/131/619 129/179/620
f 137/140/621 172/167/622 171/166/623 133/137/624
f 29/62/625 173/168/626 172/167/627 137/140/628
f 29/62/629 33/61/630 174/169/631 173/168/632
f 37/65/633 175/170/634 174/169/635 33/61/636
f 45/71/637 175/170/638 37/65/639 41/194/640
f 260/202/641 177/203/642 179/204/643 261/205/644
f 263/206/645 183/207/646 185/208/647 264/209/648
f 264/209/649 185/208/650 187/210/651 265/211/652
f 265/211/653 187/210/654 189/212/655 266/213/656
f 266/213/657 189/212/658 191/214/659 267/215/660
f 267/215/661 191/214/662 193/216/663 268/217/664
f 268/217/665 193/216/666 195/218/667 269/219/668
f 269/219/669 195/218/670 197/220/671 270/221/672
f 270/221/673 197/220/674 199/222/675 271/223/676
f 271/223/677 199/222/678 201/224/679 272/225/680
f 272/225/681 201/224/682 203/226/683 273/227/684
f 273/227/685 203/226/686 205/228/687 274/229/688
f 274/229/689 205/228/690 207/230/691 275/231/692
f 275/231/693 207/230/694 209/232/695 276/233/696
f 276/233/697 209/232/698 211/234/699 277/235/700
f 277/235/701 211/234/702 213/236/703 278/237/704
f 278/237/705 213/236/706 215/238/707 279/239/708
f 279/239/709 215/238/710 217/240/711 280/241/712
f 280/241/713 217/240/714 219/242/715 281/243/716
f 281/243/717 219/242/718 221/244/719 282/245/720
f 282/245/721 221/244/722 223/246/723 283/247/724
f 283/247/725 223/246/726 225/248/727 284/249/728
f 284/249/729 225/248/730 227/250/731 285/251/732
f 285/251/733 227/250/734 229/252/735 286/253/736
f 286/254/737 229/255/738 231/256/739 287/257/740
f 261/205/741 179/204/742 181/258/743 262/259/744
f 262/259/745 181/258/746 183/207/747 263/206/748
f 287/257/749 231/256/750 177/203/751 260/202/752
f 179/204/753 177/203/754 232/260/755 233/261/756
f 181/258/757 179/204/758 233/261/759 234/262/760
f 183/207/761 181/258/762 234/262/763 235/263/764
f 185/208/765 183/207/766 235/263/767 236/264/768
f 187/210/769 185/208/770 236/264/771 237/265/772
f 189/212/773 187/210/774 237/265/775 238/266/776
f 191/214/777 189/212/778 238/266/779 239/267/780
f 193/216/781 191/214/782 239/267/783 240/268/784
f 195/218/785 193/216/786 240/268/787 241/269/788
f 197/220/789 195/218/790 241/269/791 242/270/792
f 199/222/793 197/220/794 242/270/795 243/271/796
f 201/224/797 199/222/798 243/271/799 244/272/800
f 203/226/801 201/224/802 244/272/803 245/273/804
f 205/228/805 203/226/806 245/273/807 246/274/808
f 207/230/809 205/228/810 246/274/811 247/275/812
f 209/232/813 207/230/814 247/275/815 248/276/816
f 211/234/817 209/232/818 248/276/819 249/277/820
f 213/236/821 211/234/822 249/277/823 250/278/824
f 215/238/825 213/236/826 250/278/827 251/279/828
f 217/240/829 215/238/830 251/279/831 252/280/832
f 219/242/833 217/240/834 252/280/835 253/281/836
f 221/244/837 219/242/838 253/281/839 254/282/840
f 223/246/841 221/244/842 254/282/843 255/283/844
f 225/248/845 223/246/846 255/283/847 256/284/848
f 227/250/849 225/248/850 256/284/851 257/285/852
f 229/252/853 227/250/854 257/285/855 258/286/856
f 231/256/857 229/255/858 258/287/859 259/288/860
f 177/203/861 231/256/862 259/288/863 232/260/864
f 176/289/865 178/290/866 233/261/867 232/260/868
f 178/290/869 180/291/870 234/262/871 233/261/872
f 180/291/873 182/292/874 235/263/875 234/262/876
f 182/292/877 184/293/878 236/264/879 235/263/880
f 184/293/881 186/294/882 237/265/883 236/264/884
f 186/294/885 188/295/886 238/266/887 237/265/888
f 188/295/889 190/296/890 239/267/891 238/266/892
f 190/296/893 192/297/894 240/268/895 239/267/896
f 192/297/897 194/298/898 241/269/899 240/268/900
f 194/298/901 196/299/902 242/270/903 241/269/904
f 196/299/905 198/300/906 243/271/907 242/270/908
f 198/300/909 200/301/910 244/272/911 243/271/912
f 200/301/913 202/302/914 245/273/915 244/272/916
f 202/302/917 204/303/918 246/274/919 245/273/920
f 204/303/921 206/304/922 247/275/923 246/274/924
f 206/304/925 208/305/926 248/276/927 247/275/928
f 208/305/929 210/306/930 249/277/931 248/276/932
f 210/306/933 212/307/934 250/278/935 249/277/936
f 212/307/937 214/308/938 251/279/939 250/278/940
f 214/308/941 216/309/942 252/280/943 251/279/944
f 216/309/945 218/310/946 253/281/947 252/280/948
f 218/310/949 220/311/950 254/282/951 253/281/952
f 220/311/953 222/312/954 255/283/955 254/282/956
f 222/312/957 224/313/958 256/284/959 255/283/960
f 224/313/961 226/314/962 257/285/963 256/284/964
f 226/314/965 228/315/966 258/286/967 257/285/968
f 228/316/969 230/317/970 259/288/971 258/287/972
f 230/317/973 176/289/974 232/260/975 259/288/976
f 260/202/977 261/205/978 288/318/979 289/319/980
f 261/205/981 262/259/982 290/320/983 288/318/984
f 262/259/985 263/206/986 291/321/987 290/320/988
f 263/206/989 264/209/990 292/322/991 291/321/992
f 264/209/993 265/211/994 293/323/995 292/322/996
f 265/211/997 266/213/998 294/324/999 293/323/1000
f 266/213/1001 267/215/1002 295/325/1003 294/324/1004
f 267/215/1005 268/217/1006 296/326/1007 295/325/1008
f 268/217/1009 269/219/1010 297/327/1011 296/326/1012
f 269/219/1013 270/221/1014 298/328/1015 297/327/1016
f 270/221/1017 271/223/1018 299/329/1019 298/328/1020
f 271/223/1021 272/225/1022 300/330/1023 299/329/1024
f 272/225/1025 273/227/1026 301/331/1027 300/330/1028
f 273/227/1029 274/229/1030 302/332/1031 301/331/1032
f 274/229/1033 275/231/1034 303/333/1035 302/332/1036
f 275/231/1037 276/233/1038 304/334/1039 303/333/1040
f 276/233/1041 277/235/1042 305/335/1043 304/334/1044
f 277/235/1045 278/237/1046 306/336/1047 305/335/1048
f 278/237/1049 279/239/1050 307/337/1051 306/336/1052
f 279/239/1053 280/241/1054 308/338/1055 307/337/1056
f 280/241/1057 281/243/1058 309/339/1059 308/338/1060
f 281/243/1061 282/245/1062 310/340/1063 309/339/1064
f 282/245/1065 283/247/1066 311/341/1067 310/340/1068
f 283/247/1069 284/249/1070 312/342/1071 311/341/1072
f 284/249/1073 285/251/1074 313/343/1075 312/342/1076
f 285/251/1077 286/253/1078 314/344/1079 313/343/1080
f 286/254/1081 287/257/1082 315/345/1083 314/346/1084
f 287/257/1085 260/202/1086 289/319/1087 315/345/1088
f 339/347/1089 338/348/1090 310/340/1091 311/341/1092
f 317/349/1093 316/350/1094 289/319/1095 288/318/1096
f 326/351/1097 325/352/1098 297/327/1099 298/328/1100
f 340/353/1101 339/347/1102 311/341/1103 312/342/1104
f 327/354/1105 326/351/1106 298/328/1107 299/329/1108
f 341/355/1109 340/353/1110 312/342/1111 313/343/1112
f 328/356/1113 327/354/1114 299/329/1115 300/330/1116
f 342/357/1117 341/355/1118 313/343/1119 314/344/1120
f 329/358/1121 328/356/1122 300/330/1123 301/331/1124
f 343/359/1125 342/360/1126 314/346/1127 315/345/1128
f 330/361/1129 329/358/1130 301/331/1131 302/332/1132
f 331/362/1133 330/361/1134 302/332/1135 303/333/1136
f 318/363/1137 317/349/1138 288/318/1139 290/320/1140
f 332/364/1141 331/362/1142 303/333/1143 304/334/1144
f 319/365/1145 318/363/1146 290/320/1147 291/321/1148
f 333/366/1149 332/364/1150 304/334/1151 305/335/1152
f 320/367/1153 319/365/1154 291/321/1155 292/322/1156
f 334/368/1157 333/366/1158 305/335/1159 306/336/1160
f 321/369/1161 320/367/1162 292/322/1163 293/323/1164
f 335/370/1165 334/368/1166 306/336/1167 307/337/1168
f 322/371/1169 321/369/1170 293/323/1171 294/324/1172
f 336/372/1173 335/370/1174 307/337/1175 308/338/1176
f 323/373/1177 322/371/1178 294/324/1179 295/325/1180
f 337/374/1181 336/372/1182 308/338/1183 309/339/1184
f 324/375/1185 323/373/1186 295/325/1187 296/326/1188
f 338/348/1189 337/374/1190 309/339/1191 310/340/1192
f 325/352/1193 324/375/1194 296/326/1195 297/327/1196
f 316/350/1197 343/359/1198 315/345/1199 289/319/1200
f 344/376/1201 345/377/1202 347/378/1203 346/379/1204
f 346/379/1205 347/378/1206 349/380/1207 348/381/1208
f 348/381/1209 349/380/1210 351/382/1211 350/383/1212
f 350/383/1213 351/382/1214 353/384/1215 352/385/1216
f 352/385/1217 353/384/1218 355/386/1219 354/387/1220
f 354/387/1221 355/386/1222 357/388/1223 356/389/1224
f 356/389/1225 357/388/1226 359/390/1227 358/391/1228
f 358/391/1229 359/390/1230 361/392/1231 360/393/1232
f 361/392/1233 359/390/1234 371/394/1235 372/395/1236
f 360/396/1237 361/397/1238 363/398/1239 362/399/1240
f 362/399/1241 363/398/1242 345/377/1243 344/376/1244
f 365/400/1245 364/401/1246 374/402/1247 375/403/1248
f 359/390/1249 357/388/1250 370/404/1251 371/394/1252
f 357/388/1253 355/386/1254 369/405/1255 370/404/1256
f 355/386/1257 353/384/1258 368/406/1259 369/405/1260
f 353/384/1261 351/382/1262 367/407/1263 368/406/1264
f 347/378/1265 345/377/1266 364/401/1267 365/400/1268
f 351/382/1269 349/380/1270 366/408/1271 367/407/1272
f 349/380/1273 347/378/1274 365/400/1275 366/408/1276
f 345/377/1277 363/398/1278 373/409/1279 364/401/1280
f 363/398/1281 361/397/1282 372/410/1283 373/409/1284
f 375/403/1285 384/411/1286 377/412/1287 376/413/1288
f 372/395/1289 371/394/1290 381/414/1291 382/415/1292
f 369/405/1293 368/406/1294 378/416/1295 379/417/1296
f 366/408/1297 365/400/1298 375/403/1299 376/413/1300
f 373/409/1301 372/410/1302 382/418/1303 383/419/1304
f 370/404/1305 369/405/1306 379/417/1307 380/420/1308
f 367/407/1309 366/408/1310 376/413/1311 377/412/1312
f 364/401/1313 373/409/1314 383/419/1315 374/402/1316
f 371/394/1317 370/404/1318 380/420/1319 381/414/1320
f 368/406/1321 367/407/1322 377/412/1323 378/416/1324
f 377/412/1325 384/411/1326 379/417/1327 378/416/1328
f 379/417/1329 384/411/1330 381/414/1331 380/420/1332
f 382/418/1333 381/421/1334 384/411/1335 383/419/1336
f 383/419/1337 384/411/1338 375/403/1339 374/402/1340
